<svg xmlns="http://www.w3.org/2000/svg" viewBox="0 0 1104.5 797.5">
  <path fill="#3f3d56" d="M959 388.5h9.8v388.3H959z"/>
  <path fill="#3f3d56" d="M1059.6 438c.6 135.7-94.9 246.3-94.9 246.3s-96.6-109.7-97.2-245.5 95-246.3 95-246.3 96.5 109.7 97.1 245.5zM767.2 571.2h5.1v199.7h-5.1z"/>
  <path fill="#3f3d56" d="M819 596.6c.3 69.9-48.8 126.7-48.8 126.7s-49.7-56.4-50-126.2S769 470.4 769 470.4s49.6 56.4 50 126.2z"/>
  <ellipse cx="872" cy="776.5" fill="#3f3d56" rx="137" ry="21"/>
  <path fill="#2f2e41" d="M883.3 287a45 45 0 00-34.6-20.4s-22.4-3-36.7 27c-13.4 27.8-31.9 54.7-3 61.2l5.2-16.2 3.2 17.4a113 113 0 0012.4.2c31-1 60.4.3 59.4-10.8-1.3-14.7 5.2-39.4-6-58.3z"/>
  <path fill="#fbbebe" d="M841.5 324s15 21 6 38 21 35 21 35l22-48s-26-17-19-33z"/>
  <circle cx="851.5" cy="307" r="26" fill="#fbbebe"/>
  <path fill="#fbbebe" d="M761.5 337l21.7-28s7.7-29.3 18.7-27.9-4.3 35.3-4.3 35.3l-21.6 31zM871.5 710l7 37 15 4-4-44-18 3zM1022.5 670l27 37 11 5 9-15-27-35-20 8z"/>
  <path fill="#575a89" d="M865.5 381l-16.7-22s-32.3 6-35.3 9 8 58 8 58 2 15 11 23l9 6 74-15 2.8-33a86.4 86.4 0 00-22.8-66l-13 1.8z"/>
  <path fill="#575a89" d="M817.5 370l-5-2-23-2s-8-2-6-6 4-5 0-6-5-2-4-5 7-9 7-9l-17-14-2.4 1.9c-8.5 6.8-35.2 31.5-15.6 56.1 23 29 50 46 72 40z"/>
  <path fill="#2f2e41" d="M839.5 450v14s-9 17-6 33 4 24 4 24a136.5 136.5 0 007 40c7 20-16 151 13 153s45 4 54-6-15-182-15-182 82 171 99 164 60-23 55-32-131-209-131-209l-4-9zM887.5 740s-16-1-16 4-8 22-8 22-6 20 10 18 26-20 26-20l-4-19zM1054.5 705s-14-9-13-3 2 22 9 23 28 7 29 9 25 10 25-3-15-23-15-23l-17-13s-11-1-13 6-5 4-5 4z"/>
  <circle cx="851.5" cy="266.7" r="16.6" fill="#2f2e41"/>
  <path fill="#2f2e41" d="M833.2 262.3a16.6 16.6 0 0114.8-16.5 16.8 16.8 0 00-1.7-.1 16.6 16.6 0 100 33.2 16.8 16.8 0 001.7-.1 16.6 16.6 0 01-14.8-16.5z"/>
  <path fill="#2f2e41" d="M878.1 285.2l-22.6-11.9-31.4 4.9-6.5 28.6 16.2-.6 4.5-10.5V306l7.4-.3L850 289l2.7 17.8 26.5-.5-1-21.1z"/>
  <path fill="#fbbebe" d="M876.8 452.3l-35 1s-29.9 5.8-28.2-6.3 30.8-7.8 30.8-7.8l31.9-4.9z"/>
  <path fill="#575a89" d="M904.5 339.3a7.5 7.5 0 018.2 5.1c6.8 21.6 28 93.9 7 103.8-24.7 11.6-42.7 11.1-42.7 11.1l-9.7-23.7 8.8-8.3 9.4-60.2 4.5-25.6z"/>
  <path d="M898 379.5l-4 40-35 15 39-9v-46z" opacity=".4"/>
  <path fill="#3f3d56" d="M709.2 247.5a46.8 46.8 0 0127.4 19.8l3.2 5.1.2.2 57.4 16.8a4.2 4.2 0 012.8 5.1l-4.4 16.3a4.2 4.2 0 01-5.2 3l-57.4-16-5.7 2.1a51.5 51.5 0 01-33.2 1.1z"/>
  <ellipse cx="811.1" cy="344.2" fill="#575a89" rx="3.5" ry="6.6" transform="rotate(-73.7 753 350.5)"/>
  <circle cx="766.7" cy="294.1" r="2.4" fill="#3f3d56"/>
  <ellipse cx="749.7" cy="325.7" fill="#ffc44c" rx="28.1" ry="12.7" transform="rotate(-72 690.6 333)"/>
  <path d="M712.2 277.9c4.6-14.2 3.4-27.5-2.7-30.4a5.9 5.9 0 011 .3c6.8 2.1 8.3 15.8 3.5 30.6s-14 25-20.7 22.8a5.9 5.9 0 01-.7-.3c6.5.9 15-9 19.6-23z" opacity=".4"/>
  <path fill="#ffc44c" d="M710 247.5l-130.3-101A862 862 0 01513.5 89a331.7 331.7 0 00-146.2-78.7C224.8-26.2 111.8 38.7 60.4 133.9-18 279.5-78.2 516 269.8 390c76.2-27.5 153.2-30.4 211.6-44.9L693 301.5z"/>
  <circle cx="319" cy="70.5" r="7" fill="#f2f2f2"/>
  <path fill="#f2f2f2" d="M455 86.7H453v-1.8h-.3v1.8h-1.9v.4h1.9v1.8h.3V87h1.8v-.4zM638 238.7H636v-1.8h-.3v1.8h-1.9v.4h1.9v1.8h.3V239h1.8v-.4zM625 285.7H623v-1.8h-.3v1.8h-1.9v.4h1.9v1.8h.3V286h1.8v-.4zM66 325.7H64v-1.8h-.3v1.8h-1.9v.4h1.9v1.8h.3V326H66v-.4zM146 107.7H144v-1.8h-.3v1.8h-1.9v.4h1.9v1.8h.3V108h1.8v-.4zM457 293.7H455v-1.8h-.3v1.8h-1.9v.4h1.9v1.8h.3V294h1.8v-.4zM266 43.7H264v-1.8h-.3v1.8h-1.9v.4h1.9v1.8h.3V44h1.8v-.4z"/>
  <path fill="#e6e6e6" d="M266.6 187.7l-2.2.3c.7 4.6 1.2 9.2 1.7 13.8l2.2-.2c-.4-4.7-1-9.3-1.7-14zM260.4 160.3l-2.2.7c1.4 4.4 2.6 9 3.6 13.4l2.2-.5c-1-4.5-2.2-9.1-3.6-13.6zM250.5 134.1l-2 1c1.9 4.2 3.7 8.5 5.3 12.8l2.1-.8a203 203 0 00-5.4-13zM237.1 109.5l-2 1.3c2.6 3.8 5 7.9 7.1 11.9l2-1.1c-2.2-4-4.6-8.1-7-12zM220.5 87l-1.8 1.5c3 3.5 5.9 7.2 8.6 10.9l1.9-1.4c-2.8-3.8-5.7-7.5-8.7-11zM200.9 67l-1.5 1.7c3.4 3 6.8 6.3 10 9.5l1.6-1.6c-3.2-3.3-6.6-6.6-10.1-9.7zM178.8 49.7l-1.3 2c3.8 2.5 7.6 5.2 11.2 8l1.4-1.7c-3.7-3-7.5-5.7-11.3-8.3zM158.6 37.8v2.6c2.4 1.2 4.8 2.5 7.1 3.9l1.2-2q-4-2.4-8.3-4.5zM266.8 216h2.3v6.9h-2.3v-7zM131.6 384.7l-2.2.3c.7 4.6 1.2 9.2 1.7 13.8l2.2-.2c-.4-4.7-1-9.3-1.7-14zM125.4 357.3l-2.2.7c1.4 4.4 2.6 9 3.6 13.4l2.2-.5c-1-4.5-2.2-9.1-3.6-13.6zM115.5 331.1l-2 1c1.9 4.2 3.7 8.5 5.3 12.8l2.1-.8a203 203 0 00-5.4-13zM102.1 306.5l-2 1.3c2.6 3.8 5 7.9 7.1 11.9l2-1.1c-2.2-4-4.6-8.1-7-12zM85.5 284l-1.8 1.5c3 3.5 5.9 7.2 8.6 10.9l1.9-1.4c-2.8-3.8-5.7-7.5-8.7-11zM65.9 264l-1.5 1.7c3.4 3 6.8 6.3 10 9.5l1.6-1.6c-3.2-3.3-6.6-6.6-10.1-9.7zM43.8 246.7l-1.3 2c3.8 2.5 7.6 5.2 11.2 8l1.4-1.7c-3.7-3-7.5-5.7-11.3-8.3zM23.6 234.8v2.6c2.4 1.2 4.8 2.5 7.1 3.9l1.2-2q-4-2.4-8.3-4.5zM131.8 413h2.3v6.9h-2.3v-7zM593.6 285.7l-2.2.3c.7 4.6 1.2 9.2 1.7 13.8l2.2-.2c-.4-4.7-1-9.3-1.7-14zM587.4 258.3l-2.2.7c1.4 4.4 2.6 9 3.6 13.4l2.2-.5c-1-4.5-2.2-9.1-3.6-13.6zM577.5 232.1l-2 1c1.9 4.2 3.7 8.5 5.3 12.8l2.1-.8a203 203 0 00-5.4-13zM564.1 207.5l-2 1.3c2.6 3.8 5 7.9 7.1 11.9l2-1.1c-2.2-4-4.6-8.1-7-12zM547.5 185l-1.8 1.5c3 3.5 5.9 7.2 8.6 10.9l1.9-1.4c-2.8-3.8-5.7-7.5-8.7-11zM527.9 165l-1.5 1.7c3.4 3 6.8 6.3 10 9.5l1.6-1.6c-3.2-3.3-6.6-6.6-10.1-9.7zM505.8 147.7l-1.3 2c3.8 2.5 7.6 5.2 11.2 8l1.4-1.7c-3.7-3-7.5-5.7-11.3-8.3zM485.6 135.8v2.6c2.4 1.2 4.8 2.5 7.1 3.9l1.2-2q-4-2.4-8.3-4.5zM593.8 314h2.3v6.9h-2.3v-7z"/>
  <path fill="#f2f2f2" d="M149.3 199.9h-1.7v-1.7h-.3v1.7h-1.7v.3h1.7v1.7h.3v-1.7h1.7v-.3zM129.8 302.3H128v-1.7h-.4v1.7H126v.3h1.7v1.7h.4v-1.7h1.7v-.3zM72.4 392h-1.7v-1.7h-.3v1.7h-1.7v.3h1.7v1.7h.3v-1.7h1.7v-.3z"/>
  <path fill="#3f3d56" d="M232 278.2a122.8 122.8 0 1156.9 45.7 39.7 39.7 0 11-57-45.7z"/>
  <path fill="#ffc44c" d="M333.1 139.4c28.2 0 47.6 15.7 47.6 38.1 0 14.9-7.3 25.2-21.1 33.3-13.1 7.6-17.5 13.2-17.5 22.8a6 6 0 01-6 6h-14.4a6 6 0 01-5.9-5.8v-.7c-1.3-15.5 4.1-25.1 17.7-33 12.7-7.7 18-12.5 18-21.8s-9-16.1-20.2-16.1c-8.5 0-15.2 4.1-18.3 10.9a13.3 13.3 0 01-12.1 7.6 13 13 0 01-11.6-19c7.2-13.7 22.4-22.3 43.8-22.3zm-19.7 128.7c0-8.6 7.2-15.4 16-15.4 9 0 16.2 6.7 16.2 15.4s-7.2 15.5-16.2 15.5-16-6.8-16-15.5z"/>
</svg>
