<svg viewBox="0 0 24 24" xmlns="http://www.w3.org/2000/svg"><g fill="#fff"><path d="M12.29 21.5c3.73 0 8.94.09 10.84-3.7.71-1.45.87-3.12.87-4.7 0-2.08-.58-4.05-1.95-5.65.25-.77.38-1.58.38-2.39 0-1.06-.24-1.6-.73-2.56-2.24 0-3.69.42-5.39 1.74a19.36 19.36 0 00-8.45.04A7.87 7.87 0 002.42 2.5a4.9 4.9 0 00-.73 2.56c0 .81.13 1.64.39 2.42A8.46 8.46 0 000 13.1c0 1.58.28 3.26 1.01 4.7 1.97 3.83 7.49 3.7 11.28 3.7zM7 11.5c.95 0 1.87.18 2.8.3 3.42.53 5.22-.3 7.31-.3 2.34 0 3.68 1.92 3.68 4.1 0 4.34-4.02 5-7.53 5h-2.41c-3.5 0-7.52-.66-7.52-5 0-2.18 1.33-4.1 3.67-4.1z"/><path d="M16.66 18.32c1.29 0 1.83-1.69 1.83-2.72s-.54-2.73-1.83-2.73-1.84 1.7-1.84 2.73.55 2.72 1.83 2.72zM7.47 18.32c1.29 0 1.83-1.69 1.83-2.72s-.54-2.73-1.83-2.73-1.83 1.7-1.83 2.73.54 2.72 1.83 2.72z"/></g></svg>
