<svg xmlns="http://www.w3.org/2000/svg" viewBox="0 0 1136 691">
  <path fill="#ffb8b8" d="M792 331s-46-9-40 11 44 7 44 7z" />
  <path fill="#575a89"
    d="M890 228a4 4 0 017 2l2 9s7 36 1 59-10 54-27 57c-14 3-67-2-82-3a4 4 0 01-4-4l1-13a4 4 0 013-5l61-6a4 4 0 004-4c2-10 6-42 11-59 4-14 16-27 23-33z" />
  <path fill="#3f3d56" d="M716 668h420v2H716z" />
  <path fill="#ffb8b8"
    d="M851 615v27l15 4 11-5-1-22-25-4zM943 615v27l16 4 10-5-1-22-25-4z" />
  <path fill="#2f2e41"
    d="M882 389s-21 42-20 75a452 452 0 01-3 60l-10 99 33 1 16-106 30-82 11 98 3 98h29s13-93 6-114c0 0 17-117 3-123s-98-6-98-6z" />
  <path fill="#2f2e41"
    d="M861 635s-6-22-14-11-31 30-31 30-35 18-3 23 36-6 36-6 5-3 9-1 25 1 26-6-6-45-8-38-15 9-15 9zM968 634s0-6-11-7-13 7-13 7-3 3-4 12v31s-5 17 19 14 15-21 15-21z" />
  <path fill="#ffb8b8" d="M925 173l-2 33-6 12 14 19 34-31s-6-18-2-28z" />
  <path fill="#575a89"
    d="M1003 229v3l-10 108-2 12c-1 11-3 27-6 32-5 7-1 14-1 14-27 15-105-7-105-7l18-72s-17-75-15-82 38-31 38-31l1 3c16 20 32 2 36-2l10-8z" />
  <path fill="#3f3d56"
    d="M884 427c-55 8-108 10-156 6a377 377 0 01-52-9c-31-7-69-7-110-3a318 318 0 00-75 15c-32 12-68 11-105 1a192 192 0 01-45-17c-27-15-60-10-95 7V295c33-14 65-16 97-4a204 204 0 0035 10 277 277 0 00130-6c58-19 118-13 178 0 68 15 134 15 198 0zM0 668h420v2H0z" />
  <path fill="#ff6584" d="M552 31l-32 19-18-32 31-18z" />
  <path fill="#3f3d56" d="M435 190l-32 19-18-32 31-18z" />
  <path fill="#d0cde1" d="M756 148l-32 19-18-32 31-18z" />
  <path fill="#2f2e41"
    d="M179 424l19 88-58 130 34 15 65-149-42-131-24 6 6 41z" />
  <path fill="#2f2e41"
    d="M162 399s7 13 23 24 48 80 48 80l-36 142 49 13 27-166-55-125zM144 637s-7 8-4 14 4 20 4 20h7v-17l20 19s47 5 47 0-29-14-29-14l-13-20z" />
  <path fill="#2f2e41"
    d="M206 639s-7 8-4 13 4 21 4 21h7v-17l20 19s48 4 47 0-28-14-28-14l-14-21z" />
  <circle cx="189.5" cy="178.6" r="26.9" fill="#a0616a" />
  <path fill="#a0616a"
    d="M168 180s-3 27-16 37-13 18-13 18l54 25-13-27s-3-1 2-8 11-24 11-24z" />
  <path fill="#575a89"
    d="M223 371a152 152 0 01-50 29l-13 4s-27-33-13-59a41 41 0 0111-14v-1l-7-30v-3l-21-5v1c-2 0-12 2-4-22l11-41a10 10 0 0112-8c7 2 15 5 20 12 9 12 11-1 11-1s26 29 24 42a51 51 0 001 10v5a337 337 0 007 31v1z" />
  <path
    d="M187 335l-6 19-34-9a41 41 0 0111-14v-1l-7-30v-3l-21-5v1l-1-10s35 2 37 11-2 17-4 18 0 0 4 2-1 0-4 5 1 0 1 2v3c0 3 2 1 3 1l21 10z"
    opacity=".2" />
  <path fill="#a0616a" d="M180 331l46 12s25-25 38-17-24 25-24 25l-13 3-49-6z" />
  <path fill="#575a89"
    d="M129 280l2 22s-2 0 0 5 0 14 0 14-4 1 0 3 7 8 5 10-4 5 3 7l42 10 6-19-21-10c-1 0-4 3-3-1s1 0 0-2-4 1-1-3 8-2 4-4-6-1-4-3 6-9 4-18-37-11-37-11zM183 226l2-3a7 7 0 00-2-10l-16-10a7 7 0 00-10 2l-2 3a7 7 0 00-6 4l-5 8a7 7 0 002 10l22 14a7 7 0 0010-3l5-8a7 7 0 000-7z" />
  <path fill="#2f2e41"
    d="M189 178l1-8c2-3 7-4 11-4a32 32 0 019 0 8 8 0 015 4c1 1 1-2 1-7a24 24 0 00-18-22h-1c-5-2-10-3-15-2s-10 2-14 6l-4 6c-3 3-7 4-11 5a34 34 0 00-13 7 18 18 0 00-6 12c0 6 3 12 9 13a6 6 0 013 1c5 4-1 9-1 13s4 7 8 7a16 16 0 0016-12v-10c-1-3 8-12 2-6a9 9 0 00-2 5c-1 5 4 6 7 9a12 12 0 012 13 14 14 0 003-18l-3-4c-1-2-1-7 3-7 2 0 5 2 8-1z" />
  <circle cx="945.1" cy="159.4" r="29.5" fill="#ffb8b8" />
  <path
    d="M1002 233l-11 108-1 12c-21 5-81 9-81 9l-3-21 66-18s-8-45 1-64a143 143 0 007-13 20 20 0 0122-13z"
    opacity=".2" />
  <path fill="#ffb8b8" d="M913 338s-46-9-40 11 44 6 44 6z" />
  <path fill="#575a89"
    d="M985 226l18 3s13 34 10 58-1 55-17 60-86 11-86 11l-2-21 65-18s-8-45 2-64 10-29 10-29z" />
  <path fill="#2f2e41"
    d="M920 129l-6-2s12-13 29-12l-5-5s11-4 22 7c5 7 11 14 15 22h6l-2 6 9 6-9-1a31 31 0 010 9 12 12 0 01-5 8l-7-17v6s-5-6-5-9l-3 4h-21l3-5-12 2 5-7-18 26s-11-29 4-38z" />
  <circle cx="565" cy="363" r="108" fill="#f8cf4d" />
  <path fill="#fff"
    d="M618 385c0 6-24 23-52 23s-50-17-50-23 21 2 50 2 52-9 52-2z" />
  <circle cx="604" cy="332" r="12" fill="#3f3d56" />
  <circle cx="526" cy="332" r="12" fill="#3f3d56" />
  <circle cx="533" cy="327" r="6" fill="#fff" />
  <circle cx="594" cy="327" r="6" fill="#fff" />
  <circle cx="567" cy="219" r="43" fill="#f8cf4d" />
  <path fill="#3f3d56"
    d="M553 224c15 9 16 36 16 36s-24 12-39 3-16-36-16-36 24-12 39-3z" />
  <path fill="#3f3d56"
    d="M607 258c-14 11-39 3-39 3s-4-27 10-38 39-3 39-3 4 27-10 38z" />
</svg>
