<svg xmlns="http://www.w3.org/2000/svg" fill="none" viewBox="0 0 1200 1200">
  <path fill="#F8CF4D" d="M0 0h1200v1200H0z" />
  <path fill="#3B405B" fill-rule="evenodd"
    d="M201 895.4h332.8a64 64 0 0055.4-32l90.5-156.3a64 64 0 0155.4-31.9h21.6c16.1 0 31 8.6 39 22.5a33.9 33.9 0 01-29.2 50.9H753a55.6 55.6 0 00-48.1 27.7l-27.3 47a48 48 0 0041.6 72.1h280.1c37 0 60.1-40 41.6-72L909.9 597a64 64 0 00-55.4-31.9h-185a64 64 0 00-55.4 32l-68.8 119.5a64 64 0 01-55.5 32h-34.1a33.9 33.9 0 01-29.3-50.9c8-13.9 23-22.5 39-22.5h6.4c20 0 38.5-10.7 48.5-28l5.8-10a48 48 0 00-41.5-72H345.9a64 64 0 00-55.4 31.8l-131 226.3a48 48 0 0041.6 72.1zm146-91.5a38 38 0 00-66.3-37.2L267.2 791a38 38 0 1066.3 37.1L347 804z" />
  <path fill="#3B405B"
    d="M558.2 133L385.4 432.3a48 48 0 0041.5 72h42a64 64 0 0055.2-31.6l34.2-58.3a48 48 0 0182.8 0l34.2 58.3a64 64 0 0055.2 31.6h42c37 0 60-40 41.6-72L641.3 133a48 48 0 00-83.1 0z" />
  <path fill="#3B405B"
    d="M234.7 953.6a56.6 56.6 0 0142.8 19.1 40.5 40.5 0 019.4 21.8c0 .7-.2 1.2-.6 1.4-.2.3-.7.5-1.4.6l-20.5 1.4c-.9 0-1.5-.1-1.8-.3-.3-.4-.5-1.1-.7-2.2-1.5-7-4.5-12.5-9-16.6a24.8 24.8 0 00-17.5-6.3c-21.5 0-32.2 16.5-32.2 49.4 0 16.6 2.7 29 8 37 5.5 8 13.7 12 24.7 12a32 32 0 0019.3-5.7c5.3-3.8 9.5-10 12.8-18.3.3-1 1.4-1.3 3.2-1l15.3 3.3c.6.3 1.1.7 1.5 1.3.3.5.4 1.4.1 2.7a53.6 53.6 0 01-53.3 37.6 58.4 58.4 0 01-31.6-8.5 55.7 55.7 0 01-20.7-24.3 87.5 87.5 0 01-7.2-36.5c0-14 2.4-26 7.2-36.2A53 53 0 01203 962c9-5.5 19.6-8.3 31.7-8.3zM352 1090.8c-9.2 0-17.5-2-24.7-6.1a43.4 43.4 0 01-16.7-17.5c-4-7.4-6-15.9-6-25.4 0-9.7 2-18.3 6.2-25.9a44 44 0 0116.9-17.8 47.7 47.7 0 0124.5-6.3 47 47 0 0124.6 6.5c7.2 4.2 12.8 10 16.8 17.6 4 7.6 6 16.2 6 25.8 0 9.4-2.1 17.9-6.2 25.3-4 7.5-9.5 13.3-16.7 17.5a48 48 0 01-24.7 6.3zm.2-16c7.7 0 13.5-2.9 17.4-8.7 4.1-5.7 6.2-14 6.2-24.8 0-11-2-19.3-6.2-25.2a20 20 0 00-17.4-8.8c-7.6 0-13.5 3-17.7 8.8a44 44 0 00-6 25.2c0 10.8 2 19 6 24.8 4.2 5.8 10.1 8.7 17.7 8.7zm134.5 14.2c-2.2 0-3.4-1-3.4-3.2v-6c0-1-.3-1.6-.9-1.6-.3 0-.8.3-1.4.9a51 51 0 01-11.7 8.5 33.6 33.6 0 01-15.5 3.2c-7.4 0-14-1.8-19.8-5.4a38 38 0 01-13.7-16.4 66.1 66.1 0 01-4.8-26.8 63 63 0 015.2-26.3 43.3 43.3 0 0114.6-17.8c6-4.2 13-6.3 20.5-6.3 5 0 9.4.8 13.1 2.5 3.9 1.6 7.5 4 11 7 .6.6 1.3 1 2 1s1-.8 1-2.4v-41.6c0-1.9 1-2.9 2.6-2.9h18.2c1.8 0 2.7 1 2.7 3.1v127c0 1.3-.3 2.2-1 2.8-.4.5-1.4.7-2.8.7h-15.9zm-3.7-71.8a36 36 0 00-9.6-7.4c-3-1.7-6.4-2.5-10.2-2.5-7.2 0-13 3-17.5 8.8a42.6 42.6 0 00-6.5 25.7c0 11.6 2.1 20 6.3 25.6 4.3 5.5 10 8.3 17.1 8.3 3.7 0 7.2-.9 10.3-2.5 3.1-1.8 5.6-4.1 7.4-6.9 1.8-2.7 2.7-5.6 2.7-8.4v-40.7zm68.3 31.5c0 4.9 1.1 9.3 3.4 13.3a25.4 25.4 0 0022.7 12.4c4.9 0 9.3-1 13.3-3 4-2.2 8-5.5 11.5-10 .6-.5 1-.8 1.4-.8.4 0 1 .1 1.7.5l11 4.9c.8.3 1.2.9 1.2 1.6 0 .3-.2.9-.7 1.6a50 50 0 01-18 16.7 53.6 53.6 0 01-24.1 4.9c-9.2 0-17.4-2-24.7-6.1-7.2-4.1-12.8-9.8-17-17.1-4-7.3-6-15.7-6-25 0-10.1 2-19 6.3-26.7a45.3 45.3 0 0141-24.1c9 0 17 2 23.8 6 7 3.9 12.3 9.7 16 17.2a57.4 57.4 0 015.7 26.7v.7c0 1.2-.1 2-.5 2.5s-1.1.8-2.3.9h-63.8c-1.3 0-2 1-2 2.9zm42.6-16.2c1.2 0 2-.1 2.4-.4.4-.3.7-1 .7-2.1 0-3.9-.9-7.6-2.5-11.2a21.5 21.5 0 00-7.6-8.8 19.8 19.8 0 00-11.7-3.4 22 22 0 00-17.3 7.5c-4.3 5-6.4 11-6.3 18.4H594zm123.9-47.9a34.4 34.4 0 00-28-11.9c-7.9 0-14 1.6-18.3 4.7-4.2 3-6.3 7.1-6.3 12.4 0 7.3 5.3 12.7 16 16l27.7 8.3c20.8 6.3 31.2 18.6 31.2 37 0 8-2.1 15-6.3 21a40 40 0 01-18 13.8 70.1 70.1 0 01-27.4 4.9c-11.7 0-22.2-2-31.5-6a47 47 0 01-21-17 10 10 0 01-.8-2.2c0-1 .6-1.9 1.8-2.7l11.4-8c1.3-.6 2.3-1 3-1 1 0 1.8.4 2.4 1.3a46 46 0 0014 13 41.2 41.2 0 0019.1 3.7c8.6 0 15.4-1.4 20.3-4.3 5-2.9 7.4-7.3 7.4-13.2 0-3.8-1.2-7-3.8-9.7-2.4-2.6-6.7-5-13-7l-27.1-8.3c-10-3-17.6-7.7-22.9-14.2-5.2-6.6-7.9-14-7.9-22.1 0-7.7 2-14.5 6.1-20.4 4.1-6 9.9-10.7 17.3-14 7.6-3.4 16.3-5 26.1-5 9.5 0 18.2 1.6 26.1 5 8 3.2 14.4 7.7 19.1 13.5.7 1 1 1.7 1 2.3 0 .6-.3 1.2-1 1.8l-12.8 9.6c-.5.3-1 .5-1.4.5-.6 0-1.5-.6-2.5-1.8zm63.7 64c0 5 1.1 9.4 3.4 13.4a25.4 25.4 0 0022.7 12.4c5 0 9.4-1 13.3-3 4-2.2 8-5.5 11.5-10 .6-.5 1.1-.8 1.5-.8.3 0 .9.1 1.6.5l11 4.9c.8.3 1.2.9 1.2 1.6 0 .3-.2.9-.7 1.6a50 50 0 01-18 16.7 53.6 53.6 0 01-24.1 4.9c-9.1 0-17.3-2-24.7-6.1-7.2-4.1-12.8-9.8-16.9-17.1-4-7.3-6.1-15.7-6.1-25 0-10.1 2-19 6.3-26.7a45.3 45.3 0 0141-24.1c9 0 17 2 23.8 6 7 3.9 12.3 9.7 16 17.2a57.4 57.4 0 015.8 26.7v.7c0 1.2-.2 2-.6 2.5-.3.5-1.1.8-2.3.9h-63.7c-1.3 0-2 1-2 2.9zm42.7-16.1c1.2 0 2-.1 2.3-.4.5-.3.7-1 .7-2.1 0-3.9-.8-7.6-2.5-11.2a21.5 21.5 0 00-7.6-8.8 19.8 19.8 0 00-11.7-3.4 22 22 0 00-17.2 7.5c-4.4 5-6.5 11-6.3 18.4h42.3zm87.8-40.7c10 0 18.5 2.5 25.2 7.4 6.7 4.9 11.5 11 14.4 18.2l.3 1.6c0 1-.7 1.5-2.1 1.8l-15.9 2-.7.1c-.8 0-1.4-.6-1.8-1.8a41.2 41.2 0 00-8.3-10.2c-2.5-2.3-5.9-3.4-10.2-3.4-7.5 0-13.3 2.9-17.7 8.8a41.7 41.7 0 00-6.4 25c0 11 2.2 19.5 6.6 25.4a22 22 0 0018.6 8.6c5.1 0 9.4-1.3 13-4 3.4-2.6 6.8-6.6 10-12 .4-.5.7-.8 1-.9.6-.1 1.2 0 1.9.2l11.3 3c1.2.4 1.6 1.4 1.1 3.1-3 7-7.9 13-14.6 18.4a41 41 0 01-25.7 7.7c-9 0-17.1-2-24.3-6.1a45 45 0 01-16.8-17.5c-4-7.4-5.9-16-5.9-25.5 0-9.8 2-18.4 6.1-26a44.8 44.8 0 0140.9-23.9zm94.1 18.2c-1.2 0-1.8.6-1.8 2v48c0 4.6.9 7.8 2.7 9.7 2 1.8 5 2.7 9.2 2.7h10.6a2.4 2.4 0 012.5 2.6l-.2 9.3c0 2-1.1 3.3-3.4 3.6-4.3.7-10.9 1.1-19.8 1.1-8.1 0-14.4-1.9-18.7-5.6-4.2-3.8-6.3-9.6-6.3-17.3v-53.8c0-1.5-.7-2.3-2.2-2.3h-12c-2 0-2.9-1-2.9-2.7v-11.4c0-1.5.9-2.3 2.7-2.3h13.3c1.1 0 1.6-.6 1.6-1.8l2.4-27.7c.1-1.1.3-1.8.7-2.2.4-.5 1-.7 1.8-.7h16c.7 0 1.3.3 1.8.9.5.5.7 1.2.7 2.2v27.5c0 1 .6 1.6 1.7 1.6h20.3c1.8 0 2.7.9 2.7 2.5v11.4c0 1.8-1 2.7-3 2.7H1006z" />
  <circle cx="600" cy="1079" r="20" fill="#3B405B" stroke="#F8CF4D"
    stroke-width="16" />
</svg>
