<svg version="1" xmlns="http://www.w3.org/2000/svg" width="933.333" height="933.333" viewBox="0 0 700.000000 700.000000"><path d="M279 180.2c-38.8 67.1-75.5 130.8-81.7 141.4L186.1 341h93.5l34.8-61c19.2-33.6 35.3-60.9 35.7-60.8.5.2 16.6 27.5 35.8 60.8l35 60.5 46.5.3 46.5.2-11.2-19.4c-6.2-10.6-42.9-74.3-81.7-141.4-38.8-67.2-70.7-122.1-71-122.1-.3 0-32.2 54.9-71 122.1zM165.2 378.2c-1.1 1.8-27.7 47.8-59.2 102.3C74.5 535 47.6 581.4 46.3 583.8l-2.5 4.2 141.2-.2 141.2-.3 32.8-56.8c18.1-31.3 33.6-57.9 34.5-59.3l1.6-2.4 44.1.2 44.2.3 9.8 17 9.8 17-44.5.5-44.6.5L390 546l-24 41.5 72.5.3c39.9.1 105.1.1 145 0l72.4-.3-61.3-106-61.4-106-82.9-.3-83-.2-28.3 49.2c-15.6 27.1-29.2 50.5-30.2 52.1l-1.9 2.7h-53.5c-29.4 0-53.4-.3-53.4-.8 0-.4 4.2-8.1 9.3-17.2l9.3-16.5 34.8-.5 34.8-.5 19.4-33.8c10.7-18.6 19.4-34 19.4-34.3 0-.2-36-.4-79.9-.4h-79.9l-2 3.2z"/></svg>