<svg version="1" xmlns="http://www.w3.org/2000/svg" width="933.333"
  height="933.333" viewBox="0 0 700 700">
  <path
    d="M338.5 66.3c-2.7 1.4-6.6 4.2-8.6 6.3-4.6 4.9-104.6 177.9-107.2 185.4-4.8 14 3.7 30.5 18.1 34.6 4.1 1.2 9.3 1.5 23.5 1.2 18-.3 18.3-.3 24.7-3.4 3.6-1.7 8.4-5.1 10.7-7.4 2.4-2.4 9.4-13.2 15.7-23.9 15-25.5 19.5-29.8 32.2-30.9 8.2-.6 15 1.7 20.8 7.1 3 2.8 8.1 10.3 15.2 22.7 12.4 21.4 15.5 25.6 22.1 29.8 8.6 5.4 14.1 6.4 34.6 6 18-.3 18.3-.3 23.5-3.2 9.4-5.3 14.3-13.5 14.3-24.2 0-4.7-.6-7.9-2.4-11.7-4.2-9-102.7-179.1-105.5-182-5.2-5.6-10.8-8-19.1-8.4-6.5-.4-8.3-.1-12.6 2zM190.6 331.6c-6 1.9-11 5-15.8 10-3.6 3.8-77.4 130.1-82.6 141.4-5.1 11.1-2.2 24.5 7 32.4 8.1 6.9 2.1 6.6 115.3 6.6 90.3 0 102.8-.2 107.5-1.6 6.4-1.9 11.3-4.9 16.1-9.9 2-2 16.2-25.4 31.5-51.8 15.3-26.5 29.7-50.2 31.9-52.6 9-9.8 16.6-12.4 34.8-11.9 12.3.3 13.5.5 17.9 3 13.5 8 16.7 22.9 7 33.1-4.6 4.8-7.9 6-19.9 6.7-9.5.6-12 1.1-16.8 3.6-7.2 3.6-9.7 6.6-18.6 21.6-12.7 21.5-13.9 24.1-13.9 31.2 0 12.1 5 20.5 15.3 25.6l6.2 3 89-.2c82.9-.3 89.2-.4 92.2-2.1 12.3-6.7 18.8-20.7 15-32.7-.7-2.5-19.3-35.6-41.3-73.5-42.6-73.7-43.4-74.9-54.2-80.2l-5.7-2.8h-128l-5.7 2.8c-10.3 5-12.7 8.4-36.3 49.5-14.8 25.8-23.4 39.7-26.3 42.6-9.2 9.3-18.5 12-38.8 11.4-11.4-.3-13.4-.6-17.1-2.7-11.4-6.5-13.5-20.6-4.8-30.9 5.1-6.1 10.6-8.5 21.8-9.3 17.1-1.3 25.7-7.1 33.3-22.5 3-6 3.5-8.1 3.5-13.8 0-12.2-7.5-22.9-18.5-26.1-7.3-2.2-93.8-2.1-101 .1zm1.9 106.5c8.6 4 12.9 11.6 12.3 21.5-.3 5.4-1.2 7.5-6.9 17.5-7.8 13.5-11.8 16.7-21.6 17.6-5 .4-6.5.1-11.3-2.4-7.9-4.2-11.3-9.4-11.8-18.1-.4-6.5-.2-7.1 4.8-16.7 6.9-13.3 9.3-16.3 15.4-19.1 6.4-3 13.1-3.1 19.1-.3zM129 557.4c-15 3.2-23.8 13.9-26 31.4-3.5 27.3 10.9 47.2 34 47.2 12.5 0 22.3-5.4 28-15.4 3.8-6.5 3.8-8.2.1-8.9-1.6-.3-4-.9-5.3-1.2-2.2-.6-2.9 0-5.2 3.9-3.2 5.5-6.6 8.3-11.9 9.7-10.1 2.7-19.3-2.6-22.4-13-1.9-6.5-2.2-22.4-.4-28.7 1.3-5 4.6-10 8.4-12.8 2-1.5 4.3-2 8.7-2.1 7.3 0 10.5 2.1 14 9.3 2.7 5.6 3.8 6 12.3 4.6 4.5-.8 4.7-2.4 1.2-9.3-3.9-7.7-11.1-12.8-21.3-15-6.3-1.3-7-1.3-14.2.3zM395 557.1c-7.8 1.4-14.9 5.7-18.4 11.3-5.4 8.6-3.3 20.7 4.6 27 1.9 1.5 8.7 4.4 15.9 6.7 14.6 4.6 18.6 6.8 19.5 10.5 1.7 6.8-3.4 11.6-13.1 12.2-9.8.6-13.1-.3-18.6-5.5-5.4-5-5.7-5-11.9-.3-2.4 1.8-2.4 2.1-1 4.7 1.9 3.4 9.8 8.8 15.3 10.5 2.3.7 8.9 1.3 14.7 1.3 8.9 0 11.3-.4 15.8-2.4 10.2-4.6 15.5-14.5 13.1-24.9-2.1-9.4-7.7-13.7-24.4-18.6-12.5-3.7-14.3-4.5-16.5-7.4-4.4-5.5-1.2-12 7.1-14.3 6-1.6 14.1.1 19 4.1 2.1 1.6 4.1 3 4.6 3 .4 0 2.6-1.6 4.8-3.4l4-3.4-2-2.2c-6.3-6.9-20.6-10.9-32.5-8.9zM282.7 557.6c-.4.4-.7 6.5-.7 13.5 0 11.6-.8 15.7-2.5 12.9-1.5-2.4-8.6-5-13.8-5-7.3 0-13.3 3.2-17.4 9.4-4.2 6.1-5.5 11.2-5.5 20.6.2 16.8 8.3 27 21.7 27 5.3 0 12.1-2.5 14.4-5.3 2-2.5 3.1-2.1 3.1 1.3v3h13l-.2-38.8-.3-38.7-5.5-.3c-3.1-.2-5.9 0-6.3.4zm-3.7 33.3c2.4 1.7 2.5 2.2 2.8 14.7.1 8.8-.2 13.7-1 15.3-2.2 4.1-6.3 6.4-11.3 6.4-3.8 0-5.1-.5-7.9-3.2-7.4-7.2-7.4-26.2-.1-33.1 4.5-4.2 12-4.3 17.5-.1zM573.5 568.7c-.3 4.3-.7 8.5-.8 9.3-.2 1.1-1.7 1.6-5.5 1.8l-5.3.3.3 4.2.3 4.2 4.8.3 4.7.3v17.5c0 24.9 1.5 27.6 15.1 28.3 11.5.5 12.9-.1 12.9-4.8v-3.9l-5.4-.4c-8.7-.7-8.6-.5-8.6-19.9V589h14v-8.9l-6.7-.3-6.8-.3-.3-9.3-.3-9.2h-11.7l-.7 7.7zM193.4 581.4c-12.9 6-18.9 23.1-13.4 37.9 3.6 9.7 12 15.7 23.1 16.5 12.3.9 21.5-4.2 26.6-14.6 5.6-11.4 3-27.8-5.5-35.3-8.3-7.3-20.8-9.2-30.8-4.5zm19.7 8.7c1.5 1 3.4 3.7 4.3 5.9 1.8 4.5 2.1 15.6.6 21.1-3.3 12-19.8 13.3-24.4 1.9-3.4-8.6-1.4-24.7 3.7-28.9 4-3.3 11.1-3.3 15.8 0zM324 581.1c-5.5 2.5-10.5 7.1-13.3 12.4-2.9 5.4-3.2 22.1-.4 27.6 3.8 7.6 11.7 13.4 20 14.5l4.2.6-.3-4.6c-.4-4.1-.8-4.8-3.6-6-1.7-.7-4.1-2.4-5.3-3.7-2.1-2.4-4.6-10.3-3.5-11.4.3-.3 9.3-.5 20-.5h19.5l-.5-6.8c-.3-4-1.3-8.4-2.6-10.8-2.7-5.2-9-10.7-14.1-12.2-6-1.9-15-1.4-20.1.9zm17.1 7.4c3.6 1.9 6.9 7 6.9 10.7v2.8h-13c-12.8 0-13 0-13-2.3 0-3.7 3.4-8.9 7.1-10.9 4.1-2.2 8-2.3 12-.3zM458.5 580.8c-10.1 4.7-15.5 13-16.3 24.8-.8 12.4 4.4 22.4 14.2 27.7 3.4 1.8 5.8 2.2 13.6 2.2 8.5 0 10-.3 14.1-2.7 5.1-3 10.2-8.4 9.6-10.2-.2-.6-2-1.7-4-2.5-3.6-1.3-3.8-1.3-6.9 1.7-4 4-8.9 5.6-14 4.8-7.4-1.2-12.8-6.9-12.8-13.5V610l19.8-.2c22.7-.3 21.6.3 18.8-10.8-2-7.8-5.9-13.5-11.4-16.7-6.1-3.6-18.7-4.3-24.7-1.5zm19.6 9.8c2.4 2.3 4.9 7.6 4.9 10.6 0 .5-6.1.8-13.6.8h-13.6l.6-3.2c2.1-10.7 14.3-15.3 21.7-8.2zM522.2 580.3c-4.4 1.4-11.8 8-14.5 13.1-1.8 3.4-2.2 5.7-2.2 14.1 0 8.4.4 10.7 2.2 14 5 9.2 13.7 14.5 24.3 14.5 8.2 0 13.2-2.2 18.8-8.3 4.7-5.2 5.4-8.2 2-9.1-4.3-1.1-5.5-.6-10 3.9-4.1 4.1-5 4.5-9.2 4.5-10 0-14.7-6-14.9-18.9-.3-13.2 4.6-20.1 14.2-20.1 3.4 0 4.5.6 7.8 4.3 3.7 4.1 4 4.2 8.5 3.7 2.6-.3 5-.9 5.3-1.2 2.2-2.1-5.4-11-11.9-13.9-4.6-2.1-14.9-2.4-20.4-.6z" />
  <path
    d="M345 625c-4.1 4.1-1 11 5 11 5.8 0 8.8-6 5.4-10.8-2-2.9-7.6-3-10.4-.2z" />
</svg>
