<svg xmlns="http://www.w3.org/2000/svg"
  xmlns:xlink="http://www.w3.org/1999/xlink" viewBox="0 0 1137.7 859.7">
  <defs>
    <linearGradient id="a" x1="512.8" x2="512.8" y1="730.5" y2="139.4"
      gradientUnits="userSpaceOnUse">
      <stop offset="0" stop-color="gray" stop-opacity=".3" />
      <stop offset=".5" stop-color="gray" stop-opacity=".1" />
      <stop offset="1" stop-color="gray" stop-opacity=".1" />
    </linearGradient>
    <linearGradient id="b" x1="703.4" x2="703.4" y1="781.9" y2="171.1"
      xlink:href="#a" />
    <linearGradient id="c" x1="876" x2="876" y1="827.3" y2="239.7"
      xlink:href="#a" />
    <linearGradient id="d" x1="479.8" x2="479.8" y1="818.7" y2="229.9"
      gradientTransform="matrix(-1 0 0 1 829 0)" xlink:href="#a" />
    <linearGradient id="e" x1="561.7" x2="561.7" y1="875.4" y2="737.8"
      xlink:href="#a" />
  </defs>
  <path fill="#f8cf4d"
    d="M12 407c18 70 56 130 117 160 125 61 407 29 618-7 109-19 204-70 274-143zM1117 76h-116c-5 0-10-4-10-9s5-9 10-9h20c-5 0-10-4-10-9s5-9 10-9h-14c-5 0-10-4-10-9s5-9 10-9h61c-14-6-29-10-48-12-164-19-223-7-244 6a242 242 0 01-84 34c-102 19-291 42-463-7-86-25-150 17-188 86h1096c-1-20-6-39-13-55a10 10 0 01-7 2zM2 260a424 424 0 005 122l1015 34a433 433 0 0070-98zm402 87h-20c5 0 10 5 10 10s-5 9-10 9H268c-5 0-10-4-10-9s5-10 10-10h20c-5 0-10-4-10-9s5-9 10-9h-14c-5 0-10-4-10-9s5-9 10-9h116c5 0 10 4 10 9s-5 9-10 9h14c5 0 10 4 10 9s-5 9-10 9zM1137 130L29 154C16 186 7 222 3 259h1115a399 399 0 0016-67c3-22 5-43 3-62zm-909 80h-20c5 0 10 4 10 9s-5 10-10 10H92c-5 0-10-5-10-10s5-9 10-9h20c-5 0-10-4-10-9s5-9 10-9H98c-6 0-10-4-10-9s4-9 10-9h115c6 0 10 4 10 9s-4 9-10 9h15c5 0 10 4 10 9s-5 9-10 9z"
    opacity=".1" />
  <ellipse cx="664.3" cy="749.9" fill="#f8cf4d" opacity=".1" rx="75.2"
    ry="16.9" />
  <ellipse cx="839.1" cy="803.6" fill="#f8cf4d" opacity=".1" rx="135.7"
    ry="11.1" />
  <ellipse cx="294.2" cy="786.7" fill="#f8cf4d" opacity=".1" rx="135.7"
    ry="16.9" />
  <ellipse cx="501.1" cy="702.1" fill="#f8cf4d" opacity=".1" rx="102.1"
    ry="16.9" />
  <ellipse cx="529.7" cy="842.8" fill="#f8cf4d" opacity=".1" rx="81.8"
    ry="16.9" />
  <path fill="url(#a)"
    d="M609 320c-3-14-16-48-16-48l-1-3c-9-32-22-35-22-35l-46-10a4 4 0 011 1 6 6 0 00-1 0 18 18 0 01-4-9v-1a33 33 0 00-3-49l-2-1c3-3 3-6 1-9-4-8-12-13-20-15-6-2-13-2-19 0l-10 4c-6 3-13 6-18 11-1 1-2 2-1 4l1 3c2 2 1 5 0 8l-2 7c0 2-1 6 1 8a33 33 0 003 2 15 15 0 013 3l5 7a77 77 0 017 11l4 8a12 12 0 002 2 8 8 0 006 2 2 2 0 001 0v11a4 4 0 00-4 1l-43 34s-9 13-8 35l-8 33s-9 28-2 48l12 31s3 23 7 24l6 3 1 6 1 1c3 6 15 25 21 23a87 87 0 011 16l7 45s5 12 5 18 5 16 5 16a30 30 0 00-3 21c3 12 6 67 6 67l5 14v15a15 15 0 01-3 7c-3 4-3 8-11 13s-12 6-12 13a17 17 0 01-1 2c0 5-2 8 13 9 16 2 28-9 28-9s2-5 14-7c0 0 4 0 4-3a87 87 0 00-1-17l-3-8h3s3-22 0-37 0-25 0-25l-1-39s-4-4 0-12 0-44 0-44 1-14 4-17 0-20 0-21l6 20s3 40 8 47l2 18s11 16 9 25 2 41 2 41v32s-5 13 2 18h3l-3 3-2 12-1 7s3 5 9 5 24 14 24 14l23-1a6 6 0 004-3 8 8 0 001-5c-1-3-3-6-8-8-12-7-14-13-14-13l-8-12h1s-1-13 8-27v-64s3-22-3-33c0 0-1-13 4-17s-6-43-6-43l-4-40c9 10 20-24 21-29h1l-1-1h1s-3-8-1-6 5-5 5-5 0-31 7-47-3-56-3-56zm-29 21c1 19-1 60-1 60l-2 12-1-39-1-37zm-124-14s4 62 0 70c-2 3-3 7-4 13-2-5-5-15-4-20 2-7-3-25-3-25s0-10 3-18 1-10 1-10 3-12 7-10z"
    transform="translate(-31 -20)" />
  <path fill="#d38884"
    d="M436 445c-4 19-21-9-25-16l-1-2 2-8 10-4a27 27 0 014 3c6 4 14 13 10 27zM568 415c-2 6-12 39-21 30-11-10-6-33-6-33l22-2 5 4z" />
  <path fill="#444053"
    d="M555 577l1 63c-9 14-8 27-8 27l-29 1c-6-5-2-18-2-18v-32s-4-32-2-41-9-25-9-25l-1-17c-6-7-8-46-8-46l-6-20c0 1 3 17 0 20s-4 17-4 17 3 37 0 44 0 12 0 12l1 38s-3 11 0 25 0 37 0 37h-30v-15l-5-14s-3-55-6-66a30 30 0 013-21s-6-9-6-16-4-18-4-18l-7-45a87 87 0 00-3-25l-9-30 6 1 32 3s79-6 82-1a15 15 0 012 4c3 16 8 66 8 66s9 38 5 42-3 16-3 16c6 12 2 34 2 34z" />
  <path fill="#b07473"
    d="M489 686c0 4-4 4-4 4-12 2-14 6-14 6s-11 11-28 10c-14-2-12-4-12-9a18 18 0 001-3c0-6 5-8 12-13s8-8 11-12 3-10 3-10c4-6 13 1 13 1 0 2 14 2 14 2l3 7 1 11v6z" />
  <path
    d="M489 686c0 4-4 4-4 4-12 2-14 6-14 6s-11 11-28 10c-14-2-12-4-12-9 7 2 19 4 26 0l17-9 15-8v6z"
    opacity=".1" />
  <path fill="#b07473"
    d="M575 705a6 6 0 01-3 3l-23 1s-18-14-24-14-8-5-8-5v-7c1-5 1-10 3-12s3-6 8-3c0 0 8-14 17-4l10 15s2 6 14 12c4 3 7 6 7 9a7 7 0 01-1 5z" />
  <path
    d="M575 705l-3 3-23 1s-18-14-24-14-8-5-8-5v-7c6 1 14 4 16 7 4 5 15 12 15 12l28-2a7 7 0 01-1 5z"
    opacity=".1" />
  <path fill="#d38884"
    d="M498 211l-26 28s-31-2-26-12c3-4 3-14 3-23l-1-16s44-22 41-1a34 34 0 000 12c2 10 9 12 9 12z" />
  <path
    d="M489 187a34 34 0 000 12 33 33 0 01-23 9c-6 0-13-5-18-7v-13s44-22 41-1z"
    opacity=".1" />
  <path fill="#d38884" d="M498 174a33 33 0 11-12-26 33 33 0 0112 26z" />
  <path
    d="M543 419c-8 20-61 20-61 20v-21h-3c1 6-2 21-2 21-41 5-51-18-51-18l1-8 32 3s79-6 82-1a15 15 0 012 4z"
    opacity=".1" />
  <path fill="#f8cf4d"
    d="M482 437v-22h-3c1 6-2 21-2 21-31 4-44-8-49-14a19 19 0 01-2-4l12-71 3-104 5-19 1-9 3 2 19 8 22-16 1-1 1-1 2 2 4 4 15 93a952 952 0 0030 104c3 26-62 27-62 27z" />
  <circle cx="471.8" cy="227.1" r="1.9" fill="#67647e" />
  <circle cx="472.7" cy="244.1" r="1.9" fill="#67647e" />
  <circle cx="474.6" cy="271.6" r="1.9" fill="#67647e" />
  <circle cx="477.6" cy="301.2" r="1.9" fill="#67647e" />
  <circle cx="479.5" cy="329" r="1.9" fill="#67647e" />
  <circle cx="481.3" cy="358.6" r="1.9" fill="#67647e" />
  <circle cx="480.6" cy="387.9" r="1.9" fill="#67647e" />
  <path
    d="M448 358s-2 27-6 35-5 30-5 30l-9-1a19 19 0 01-2-4l12-71 3-104 5-19 1-9a4 4 0 013 0l1 1-1 1c-3 11-5 31-5 31s5 36 6 53-3 57-3 57zM426 418c-3 6-12 10-15 11l-1-2 2-8 10-4a27 27 0 014 3z"
    opacity=".1" />
  <path fill="#67647e"
    d="M403 279l-8 4-8 33s-9 28-2 48l11 31s3 22 7 24l7 3v5s12-4 16-10-3-24-3-24-6-15-5-22-3-24-3-25 0-10 3-17 1-10 1-10l-2-21z" />
  <path
    d="M543 413s-21 8-28 1-6-40-6-40-6-61-10-71-2-83-2-83-3-9-6-11a3 3 0 000-1h1l3 1 4 4 15 93s25 72 29 100z"
    opacity=".1" />
  <path d="M568 415c-3 1-27 4-27-1a14 14 0 010-2l22-2 5 4v1z" opacity=".1" />
  <path fill="#67647e"
    d="M545 246l16 8s13 34 15 48c0 0 10 39 3 55s-6 47-6 47-4 6-6 4 1 7 1 7-27 3-27-2l6-30s2-60 0-69-2-68-2-68z" />
  <path
    d="M499 309s-9 22-12 23 1 7 1 7 16-22 11-30zM493 234l-13 12c-3 2 10 0 13-12zM464 308s-16 10-14 14 14-14 14-14zM493 460s14 9 35 11zM460 481s13 16 19 17-19-17-19-17zM478 544s-7 14-14 15 14-15 14-15zM537 575s13-3 16 6c0 0-1-3-16-6zM529 627s15-3 18 1-18-1-18-1zM485 634s-15 3-15 5 17 2 18-1a3 3 0 00-3-4zM524 647s25-3 24 3-24-3-24-3zM390 332c0 1 17 3 19 8l-19-7M413 376s-14 4-13 11-1-3 13-11zM407 410s5-7 10-6-10 6-10 6zM486 148a8 8 0 01-2 2c-4 2-5 6-7 10-1 4-3 8-7 10-5 2-11 1-15 4a12 12 0 00-7 12 34 34 0 002 5 39 39 0 011 12 33 33 0 1135-55z"
    opacity=".1" />
  <path fill="#585268"
    d="M485 139c-3-8-11-13-19-15-6-2-13-2-19 0l-10 4c-6 3-13 6-17 11l-2 4 2 3v8l-3 7c-1 2 0 6 1 8l3 2a15 15 0 013 3l5 7a75 75 0 017 10l4 8c1 2 5 5 8 4a1 1 0 001 0 2 2 0 000-1 38 38 0 00-1-12 34 34 0 01-2-5 12 12 0 017-12c5-2 11-1 15-4 4-2 6-6 8-10s3-8 7-10 4-6 2-10z" />
  <path
    d="M470 673s5 6 4 10-4-10-4-10zM538 689s1-9 6-9l8 1c4 1 6 3 5 4s-6-5-10-2a36 36 0 00-9 6zM456 236l14-10s-21-12-23-10-4 17-4 17z"
    opacity=".1" />
  <path fill="#e1e7ef" d="M455 235l14-10s-20-12-22-10-5 18-5 18z" />
  <path fill="#f8cf4d" d="M455 235l14-10s-20-12-22-10-5 18-5 18z" />
  <path fill="#67647e"
    d="M449 215h-1a4 4 0 00-3 0l-42 34s-10 13-8 34l24 36s3-12 7-10c0 0 4 61 0 70s-7 41-7 41l16 2s2-22 6-30 5-35 5-35 4-40 3-57l-5-53s1-22 5-32z" />
  <path d="M491 230l-18-7s22-24 25-11z" opacity=".1" />
  <path fill="#e1e7ef" d="M491 229l-18-7s22-24 25-11z" />
  <path fill="#f8cf4d" d="M491 229l-18-7s22-24 25-11z" />
  <path d="M490 208a1 1 0 011 0z" opacity=".1" />
  <path fill="#67647e"
    d="M492 206l46 10s13 3 22 35-13 71-13 71l-4-4 2 94s-21 8-28 1-6-41-6-41-7-61-11-71-2-82-2-82-4-13-6-13z" />
  <path
    d="M534 266s-1 29 2 50a275 275 0 008 39l-5-86s-3-5-5-3zM529 241c1 1 6 13 3 18s-3-18-3-18zM485 139a26 26 0 00-10-11 24 24 0 017 9c2 4 2 8-2 10s-5 6-7 10-4 8-7 10c-5 3-11 2-16 4a12 12 0 00-6 12 34 34 0 001 6 39 39 0 011 11 2 2 0 010 1 1 1 0 01-1 1 7 7 0 01-3-1 8 8 0 006 2 1 1 0 001-1 38 38 0 00-1-12 33 33 0 01-2-5 12 12 0 017-12c4-2 10-1 15-4 4-2 6-6 7-10 2-4 3-8 7-10s5-6 3-10z"
    opacity=".1" />
  <path fill="url(#b)"
    d="M801 284c-14 0-26-10-33-22a22 22 0 01-3-9 11 11 0 010-2 23 23 0 001-4 6 6 0 000-1c0-3-1-5-3-7l-6-4c-6-6-8-14-8-22l1-11a43 43 0 00-1-5c0-5-2-10-6-13-10-8-26 0-37-7-2-2-4-5-7-6l-7 1c-7 3-16 6-19 13-1 4-1 9-3 13l-4 8a12 12 0 00-1 7 7 7 0 000 3 9 9 0 003 4 12 12 0 01-2 2l-7 7c-4 4-3 10-2 15s6 9 8 14c1 3 2 5 1 7l-4 4a12 12 0 00-3 7c-22 5-22 23-22 23l-12 30-5 12-14-2 10 16-3 17s-4 21 4 24l17 8a10 10 0 003 1v1a2 2 0 002 0 2 2 0 001 0 2 2 0 001-1l5-2 5 5 6 4-7 68s-1 91-5 112v17h-1c1 6 3 7 3 7a1 1 0 001 0 59 59 0 013-8v2l-1 25c-1 12 3 52 3 52l2 36a33 33 0 01-4 17c-4 8-9 18-9 22a5 5 0 000 1l-9 10s-3 5 4 7c4 2 11 0 17-1a11 11 0 009-11 39 39 0 017-13l1 8 10 2 1-22a10 10 0 000-4c2-17-4-15-4-15-4-8-2-20-2-20l7-46v-41-1l45-2v1l-2 86a47 47 0 01-3 15l-1 1a69 69 0 00-4 22l-1 27v1c-2 0-5 2-5 9 0 8 15 5 15 5 16 0 16-16 16-16l1-25c0-10-2-8-2-8v29-29l2-30 17-58v-38-1l10-1h1s-1-78-3-108-5-56-12-64c-5-5-11-20-15-32a157 157 0 0027 9c24 5 21-15 21-15l-3-39h1a197 197 0 00-3-30c-1-8-3-16-6-22l7-3c7-3 14-7 15-14a9 9 0 000-2zm-146 56l-1 19-7-10 7-12zm100 21zm3 15l-12-4a56 56 0 017-10l1-1h1-1 1a21 21 0 004 9c5 5-1 6-1 6z"
    transform="translate(-31 -20)" />
  <path fill="#a27772" d="M651 716l-1 27-10-2-2-11 13-14z" />
  <path d="M651 716l-1 27-10-2-2-11 13-14z" opacity=".1" />
  <path fill="#cc818c"
    d="M685 747l15 3 10-9v-31l2-29 17-58v-37-8l-32-8v25l-3 84a47 47 0 01-3 16 69 69 0 00-5 22l-1 27v1z" />
  <path
    d="M710 710v1-1zM685 747l15 3 10-9v-3a3 3 0 01-1 3h-1a28 28 0 01-16 3h-5a5 5 0 00-2 0v1z"
    opacity=".1" />
  <path fill="#b07473"
    d="M708 742h1a3 3 0 001-3v-28s3-2 3 7l-2 25s0 16-15 16c0 0-16 3-15-6s6-9 6-9l5 1a28 28 0 0016-3z" />
  <path fill="#cc818c"
    d="M611 741c1 6 19 3 19 3l13-25s11-8 5-15a11 11 0 010-1l-1-1c-4-7-2-20-2-20l7-45a332 332 0 000-49l-31-8v9l-1 25c-2 12 3 51 3 51l2 36a33 33 0 01-4 18l-10 21a4 4 0 000 1z" />
  <path
    d="M611 741c1 6 19 3 19 3l13-25s11-8 5-15a11 11 0 010-1l-5 13-13 25c-3 4-18 0-19-1a4 4 0 000 1z"
    opacity=".1" />
  <path fill="#b07473"
    d="M647 702s6-1 5 15a10 10 0 01-5 9c-5 3-12 9-15 20a11 11 0 01-9 11c-5 1-12 2-16 1-8-2-4-7-4-7l8-10s15 6 19 1 13-25 13-25 6-13 4-15z" />
  <path
    d="M697 573v24c8 0 14-1 15-3 2-3 10-5 17-5v-8zM621 592a11 11 0 013-4c4-2 3 11 3 11h25v-8l-31-8v9z"
    opacity=".1" />
  <path fill="#444053"
    d="M617 595s4-10 7-12 3 12 3 12 81 1 85-5 28-6 28-6-1-78-3-108-5-56-12-64a438 438 0 01-19-44l-78 4v7l-9 82s-1 90-4 111 2 23 2 23z" />
  <g opacity=".1">
    <path
      d="M706 590c4-7 27-6 27-6s0-78-2-108-5-56-12-64a403 403 0 01-19-44h5a417 417 0 0020 44c7 8 10 35 12 64s2 108 2 108-23-1-27 6a337 337 0 01-6 0zM618 583c1-1 2 2 3 5a58 58 0 00-4 7s-2-1-3-7l4-5z" />
  </g>
  <path fill="#585268"
    d="M641 180c-5 7 0 17-6 24-1 3-4 4-6 7-4 4-4 10-2 15l7 14c1 2 2 5 1 7l-3 4c-4 4-4 9-2 14s6 9 9 13c2 2 4 4 6 4a8 8 0 004-2 37 37 0 0017-48c-4-7-9-14-9-22 0-6 3-12 4-19s-4-19-13-22c1 4-4 7-7 11z" />
  <path
    d="M641 180c-5 7 0 17-6 24-1 3-4 4-6 7-4 4-4 10-2 15l7 14c1 2 2 5 1 7l-3 4c-4 4-4 9-2 14s6 9 9 13c2 2 4 4 6 4a8 8 0 004-2 37 37 0 0017-48c-4-7-9-14-9-22 0-6 3-12 4-19s-4-19-13-22c1 4-4 7-7 11zM700 444c-10 1-20 6-30 11s-18 11-28 15M694 470a44 44 0 00-28 13l-8 9a34 34 0 01-15 8M696 489a49 49 0 00-22 13l-5 6c-9 9-22 14-34 19"
    opacity=".1" />
  <path fill="#cc818c"
    d="M695 223a219 219 0 002 25c1 6 3 12 5 14 5 7-29 17-29 17l-20-16s16-15 8-30 34-10 34-10z" />
  <path d="M628 379h81l-4-11-77 4z" opacity=".1" />
  <path fill="#f8cf4d"
    d="M622 377h88c-3-9 0-17 3-23a51 51 0 019-12h1l30-7h2s0-56-19-63-32-18-32-18l-27 8-20-10c-6 7-23 4-23 4-28 3-28 24-28 24s17 38 18 38l-2 59z" />
  <path
    d="M652 342s-17-4-23-11M742 321l-20 17a35 35 0 000 4h1l30-7zM686 371l12 6h12c-3-9 0-17 3-23l-21-7c7 7-6 24-6 24z"
    opacity=".1" />
  <path fill="#f8cf4d"
    d="M619 274l-13 6-12 31s-12 33-11 42c0 0-4 21 4 24l20 9a2 2 0 002-2c-2-6-6-14-1-19l-5-12 21-35 7-12z" />
  <path
    d="M646 335c1 4 5 11 16 14l13 10 14 6 6 3 2-17-5-3-6-4s-15-26-37-15a5 5 0 00-3 6z"
    opacity=".1" />
  <path fill="#cc818c"
    d="M647 334c1 4 4 11 16 13l13 11 14 6 6 3 2-18-5-3-7-3s-14-26-37-15a5 5 0 00-2 6z" />
  <circle cx="672.1" cy="213.7" r="31.6" opacity=".1" />
  <circle cx="672.1" cy="213" r="31.6" fill="#cc818c" />
  <path d="M692 281l-10-19s14-6 15-12 13 8 11 12-16 19-16 19z" opacity=".1" />
  <path fill="#f8cf4d" d="M692 279l-10-18s14-6 15-13 13 8 11 13-16 18-16 18z" />
  <path fill="#f6f8fb" d="M614 327l52 70s-19 11-46-8l-11-14-33-55z" />
  <path fill="#cc818c" d="M604 365h4s30-28 37-14-18 28-18 28l-8 4-10 3-7-9z" />
  <path
    d="M611 380v5a2 2 0 01-1 1 2 2 0 01-1 0 10 10 0 01-7-3 30 30 0 01-4-6c-1-2-3-5-2-7 0-3 3-5 5-7 5-3 5 1 6 5l4 12z"
    opacity=".1" />
  <path fill="#f8cf4d"
    d="M610 380v5a2 2 0 01-1 1 2 2 0 01-1 0 10 10 0 01-6-3 30 30 0 01-5-6l-2-7c1-3 3-5 6-7 4-3 5 1 6 5l3 12z" />
  <path
    d="M624 318l2-4-2 7v-3zM690 364l6 3 2-18-5-3c3 5 0 13-3 18zM713 344s-19 1-26-4"
    opacity=".1" />
  <g opacity=".1">
    <path
      d="M710 356a51 51 0 0110-12 24 24 0 012-2l29-6h1s0-55-19-63a118 118 0 01-31-17l2-1s12 11 32 18 19 63 19 63h-3l-29 6-1 1a56 56 0 00-10 12 31 31 0 00-2 24h-3c-3-9 0-17 3-23zM633 258h1a51 51 0 006 0 55 55 0 01-7 0zM675 264l-18-10a9 9 0 001 0l18 9z" />
  </g>
  <path fill="#f8cf4d"
    d="M743 320l12 15 2 39s3 21-20 16-50-20-50-20 13-18 6-24l33 11s6-2 1-6-5-14-5-14z" />
  <path
    d="M748 362l7 8a10 10 0 01-7-8zM737 361l10 13-5 1-5-14zM634 199c-1-3 0-6 2-9l4-8 2-13c3-7 12-10 19-13l7-1 7 5c10 8 27 0 36 8 4 3 6 7 6 12v15c0 8 2 17 8 23l6 5 3 6a23 23 0 01-1 4c-1 4 1 9 3 13 7 11 19 21 32 21-1 7-8 11-14 14-8 4-16 7-25 7s-18-6-20-15c0-3 0-7-3-8l-5-2c-3-1-4-3-5-6a56 56 0 01-2-16c0-6 1-13-3-19-3-5-9-7-13-12-4-4-8-9-14-10-8-1-25 10-30-1z"
    opacity=".1" />
  <path fill="#585268"
    d="M634 197c-1-3 0-6 2-9l4-7 2-13c3-8 12-11 19-13 2-1 5-2 7-1 3 0 5 3 7 5 10 7 27-1 36 7 4 3 6 8 6 13v14c0 9 2 18 8 23l6 5c2 2 3 4 3 7a23 23 0 01-1 3c-1 5 1 9 3 13 7 12 19 22 32 22-1 7-8 11-14 14-8 3-17 7-25 6s-18-6-20-15c0-3 0-6-3-8l-5-1c-3-1-4-4-5-6a56 56 0 01-2-16c0-7 1-14-3-19-3-5-9-8-13-12s-8-9-14-10c-8-1-25 10-30-2z" />
  <path d="M657 278l18-14s-12-7-14-13-11 3-10 8l6 19z" opacity=".1" />
  <path fill="#f8cf4d" d="M658 276l18-15s-13-6-14-12-12 3-11 8l7 19z" />
  <circle cx="676.4" cy="273.6" r="1.4" opacity=".1" />
  <circle cx="676.4" cy="281.6" r="1.4" opacity=".1" />
  <circle cx="676.4" cy="289.6" r="1.4" opacity=".1" />
  <g opacity=".1">
    <path
      d="M642 177l2-13a13 13 0 00-1 3c-2 4-2 9-3 13a23 23 0 002-3zM756 276c-8 3-17 7-25 6s-18-6-20-15c0-3 0-6-3-8l-5-1c-3-1-4-4-5-6a56 56 0 01-2-16c0-7 1-14-3-19-3-5-9-8-13-12s-8-9-14-10c-8-1-25 10-30-2a9 9 0 011-7l-1 2c-2 3-2 6-1 9 4 12 21 0 29 2 6 0 10 5 14 10 4 4 10 7 13 11 4 6 3 13 3 19a56 56 0 003 16c0 3 2 5 4 6l5 2c3 1 3 5 3 8 2 9 11 14 20 15s17-3 25-7c6-2 12-6 14-12-3 4-7 7-12 9z" />
  </g>
  <path fill="url(#c)"
    d="M964 352c-21-12-29-15-29-15h-1a18 18 0 01-5-7 14 14 0 010-2 1 1 0 000 1c0-7 5-13 9-18l11-13a13 13 0 003-4 10 10 0 000-3v-1-10c0-3-1-7-3-7l-5-1a2 2 0 010-2 38 38 0 001-7 9 9 0 000-3c-2-5-8-7-13-7s-10-2-13-6a41 41 0 00-3-4 11 11 0 00-5-2 29 29 0 00-19 1l-7 3-8-3c-5-1-9 3-11 6a15 15 0 00-2 8 11 11 0 003 8c2 2 5 3 5 6l1 3v1a33 33 0 00-7 20 34 34 0 0024 32v1c0 4-2 8-5 11l-30 12s-18-2-25 24a45 45 0 00-1 14c1 4 0 11-5 20-7 14-5 48 10 51 14 3 20 2 20 2 0 7-2 61-11 67-2 2-1 3 0 4v1c0 4-1 19-7 27-6 10-5 67-5 67l-5 34s3 21 0 25c-2 3-5 80-6 96a8 8 0 00-7 4c-3 6-16 17-16 17-2 4-12 7-18 9a11 11 0 00-2 1 11 11 0 00-4 5 5 5 0 00-1 4c2 3 30 5 37 2 5-3 27-6 37-7a8 8 0 006-7 4 4 0 00-1-3l-3-12a8 8 0 002-2 88 88 0 015-35c7-18 9-51 7-72 0 0 21-89 37-97 0 1 8 11 9 42s13 52 13 52-5 54 0 74l-7 32-1-1 1 2v1c1 4 2 11 1 15l-1 9c-1 5-1 9 2 10 4 2 29 4 33-1a8 8 0 001-8 8 8 0 00-1-2s-7-11-5-19a6 6 0 00-1-4c1-4 2-21 6-35 4-16 13-51 7-74l-1-3a99 99 0 01-4-38 79 79 0 010-34l7-37s2-24 0-39v-1h1l-8-42-1-14a35 35 0 005-1c18-6 24-63 24-63v-18s6-28-15-40zM828 790h-1z"
    transform="translate(-31 -20)" />
  <path fill="#65617d"
    d="M922 660c8 22-2 59-6 76s-5 36-5 36c-17 2-29-1-29-1l7-34c-5-20 0-73 0-73s-12-21-13-53c-1-31-8-41-9-41-15 8-35 96-35 96 1 22-1 54-7 72a89 89 0 00-5 35c-3 2-6 3-9 2-10-1-21-10-21-10s4-96 6-99 0-24 0-24l5-34s-1-57 5-67c6-8 7-23 7-27v-1l10-12s92-7 99 0l3 11c2 15 0 39 0 39l-7 37a80 80 0 000 33 100 100 0 004 39z" />
  <path fill="#a27772"
    d="M916 804c-4 5-28 3-32 1-3-1-3-6-2-10l1-9c1-6-2-18-2-18s6 6 7 0c1-2 3-4 5-4a12 12 0 018 0c4 2 12 6 10 11-1 8 5 19 5 19a8 8 0 011 2 8 8 0 01-1 8z" />
  <path
    d="M916 804c-4 5-28 3-32 1-3-1-3-6-2-10 3 1 7 2 14 1a41 41 0 015 0 120 120 0 0016 0 8 8 0 01-1 8zM832 666c1 22-1 54-7 72a89 89 0 00-5 35c-3 2-6 3-9 2l16-121c6-54 35-91 35-91l5 7c-15 8-35 96-35 96z"
    opacity=".1" />
  <path fill="#fbbebe"
    d="M906 321l-4 19-20 33-24-10s-33-35-12-40a18 18 0 007-3c4-3 5-7 5-11a36 36 0 00-3-15l42-13a68 68 0 00-3 17c0 12 4 17 8 20a13 13 0 004 3z" />
  <path
    d="M897 281a68 68 0 00-3 17 32 32 0 01-2 3 34 34 0 01-34 8 36 36 0 00-3-15z"
    opacity=".1" />
  <path fill="#fbbebe" d="M902 276a34 34 0 11-33-34 33 33 0 0133 34z" />
  <path
    d="M906 321l-4 19-20 33-24-10s-33-35-12-40a18 18 0 007-3c-4 11 12 32 12 32 1 3 5 1 5 1 10-1 29-30 32-35a13 13 0 004 3zM925 512c-6 1-38 8-50 6l-40-3s-17 1-22-1v-1l10-12s92-7 99 0l3 11z"
    opacity=".1" />
  <path fill="#f8cf4d"
    d="M865 353s-18-24-11-33l-30 12s-17-2-24 24a46 46 0 00-1 13c1 4 0 11-5 20-7 15-5 48 10 51s20 2 20 2-2 60-11 67 22 5 22 5l40 4c14 2 51-7 51-7l-8-42-6-50 33-46s6-27-14-39-29-15-29-15-21 33-32 35c0 0-4 2-5-1z" />
  <path d="M826 363s0 10 2 15l9 28h-17s9-10 9-14l-3-29z" opacity=".1" />
  <path fill="#fbbebe"
    d="M875 444s-37-8-40-16-13-24-13-24l4-6 18 14s21 17 31 19 0 13 0 13z" />
  <path d="M875 444s-37-8-40-16-13-24-13-24l4-6 18 14s21 17 31 19 0 13 0 13z"
    opacity=".1" />
  <path fill="#fbbebe"
    d="M906 402v19h-3a92 92 0 00-45 12l-6 3-1 1-11-23 10-8h1c2 0 12 1 16-1 4-1 9-5 21-2 6 1 11 8 17 6z" />
  <path
    d="M938 366l6 7v18s-5 57-23 63-49-4-49-4-9-21-5-23l34-9s0-33 6-43c0 0-4-31 11-31s20 22 20 22z"
    opacity=".1" />
  <path fill="#f8cf4d"
    d="M939 366l6 7v18s-5 57-23 63-49-4-49-4-9-21-5-23l34-9s0-33 6-43c0 0-4-31 11-31s20 22 20 22z" />
  <path
    d="M893 290a13 13 0 00-1-7c-1-2-3-3-5-3-3 1-4 5-7 6-2 0-5-1-6-3l-1-8v-8c0-3 0-6-2-8-2-3-8-5-11-4a10 10 0 00-7 2l-6 3a6 6 0 01-5-5 34 34 0 1150 45 90 90 0 001-10z"
    opacity=".1" />
  <path fill="#7c5c5c"
    d="M847 259a6 6 0 01-5-5l-1-3c0-2-3-4-5-6-4-4-4-10-1-15 2-4 6-7 11-6l7 2 8-2a28 28 0 0118-2 11 11 0 015 3 44 44 0 013 4c3 4 8 4 13 5s10 3 12 8c1 3 0 6-1 10a3 3 0 001 2l4 1c2 0 3 4 3 7v9a12 12 0 010 4 13 13 0 01-3 4l-10 13c-5 6-10 13-9 20-3 1-5 0-6-3s0-5 0-7a91 91 0 002-13 13 13 0 00-1-7c-1-2-3-3-5-3-3 1-4 5-7 6-2 0-5-1-6-3l-1-8v-8c0-3 0-6-2-8-2-3-8-5-11-4a10 10 0 00-7 2l-6 3z" />
  <path
    d="M854 362l10 42s9 0-10-42zM889 355s-13 22-8 45h3s-5-11 5-45zM898 480s16-6 18 7c0 0-3-9-18-7zM850 407s-3 23 3 32c0 0-12 5-29 4l-2-36z"
    opacity=".1" />
  <path d="M852 436l-1 1-11-23 10-8h1c-1 1-3 21 1 30z" opacity=".1" />
  <path fill="#f8cf4d" d="M850 406s-3 23 3 32c0 0-12 5-29 4l-12-36z" />
  <path fill="#a27772"
    d="M822 790a7 7 0 01-7 6c-9 2-30 5-36 8-7 3-34 1-35-3a5 5 0 010-4 11 11 0 015-4 12 12 0 012-1c5-2 15-6 17-9 0 0 12-11 16-17a8 8 0 016-4c3 0 6 2 7 8 0 0 16 9 20 1 0 0 1 12 4 15a4 4 0 011 4z" />
  <path
    d="M822 790a7 7 0 01-7 6c-9 2-30 5-36 8-7 3-34 1-35-3a5 5 0 010-4 11 11 0 015-4c4 3 14 5 36 2 20-3 31-6 36-9a4 4 0 011 4z"
    opacity=".1" />
  <g opacity=".1">
    <path
      d="M911 252c1-3 2-5 1-8a49 49 0 01-1 6 4 4 0 000 2zM892 283a10 10 0 011 4 11 11 0 00-1-6c-1-2-3-3-5-3-3 1-4 5-7 6-2 0-5-1-6-4l-1-7v-8c0-3 0-6-2-9-2-2-8-4-11-4a10 10 0 00-7 3c-2 2-4 3-6 2a6 6 0 01-5-4l-1-3c0-3-3-4-5-6a11 11 0 01-3-7 11 11 0 003 9c2 2 5 3 5 5l1 4a6 6 0 005 4l6-3a10 10 0 017-2c3 0 9 1 11 4 2 2 2 5 2 8v9l1 7c1 2 4 4 6 3 3-1 4-5 7-5 2-1 4 1 5 3zM919 274a13 13 0 01-3 4l-10 13c-5 6-10 12-9 19 0-6 4-12 9-17l10-13a13 13 0 003-5 12 12 0 000-3 10 10 0 010 2zM891 308a8 8 0 010-2 9 9 0 000 3c1 3 3 5 6 4a14 14 0 01-1-2c-2 1-4-1-5-3z" />
  </g>
  <path
    d="M782 769s3 6 15 1M887 771s11 12 24 4M918 621s-7 5-8 8 4-2 4-2zM921 657a16 16 0 01-9 4c-6 0-5 8-2 6l11-10zM923 662s-4 18-7 15"
    opacity=".1" />
  <path fill="url(#d)"
    d="M250 816s23 7 34-2 16-5 16-5 26-2 28-8-10-29-10-29l-2-4v-10l4-39c8-23 0-52 0-52l-2-7a18 18 0 012-12l16-32a48 48 0 013-6 156 156 0 0112-20c7-10 11-22 13-31l1 3h1l5 62c0 25 9 38 9 38l-1 54c2 13-2 30-4 37l-3 9a10 10 0 00-6 8c-1 6-8 20-8 20l-8 12s-3 9-1 12 16 3 16 3c15 3 28-5 27-11s2-7 2-7c7-2 6-7 6-7a39 39 0 00-5-25l-1 2a35 35 0 012-13h-1c1-9 10-25 10-25 17-30 11-70 11-70l-2-12-1-5a158 158 0 013-34l3-17c1-14 6-28 8-34h1l3-1 1-8v-12a133 133 0 00-6-41l1-1 3-4 18-22c14-16 10-32 10-32l-14-59c-3-13-8-21-12-26a52 52 0 002-11c0-7 0-14-3-19s-9-11-16-10a6 6 0 01-3 0 4 4 0 01-2-2c-3-5-4-12-3-19l5-19c1-7 1-13-3-19-5-6-14-7-20-12-4-3-8-8-12-10s-9-2-14-1c-9 2-17 3-25 6a65 65 0 00-21 16 20 20 0 00-5 7c-2 7 2 14 1 21-1 5-3 9-6 13s-4 10-2 14c3 7 12 9 19 13a6 6 0 012 2c2 2-2 5-4 8a13 13 0 00-2 5 18 18 0 00-11 13c-3 10 1 23 4 31-3 19 1 26 4 29a16 16 0 016 11v1l1 10v-2c-3 5-8 17-11 38a114 114 0 01-2 13 72 72 0 00-3 23l1 7a2 2 0 01-1 0l3 6v11a40 40 0 01-3 14v2a12 12 0 00-2 6c-7 12-24 77-24 77-10 21 0 35 0 35l6 62 3 39v3a7 7 0 00-2-1c-8 0-10 13-10 13l-17 16s-8-1-19 7 7 16 7 16zm169-342h-1v1l-8-28a45 45 0 010-22l6-27v-6l19 51c1 7-11 23-16 31z"
    transform="translate(-31 -20)" />
  <path fill="#fdc2cc"
    d="M396 537s-8 19-10 37l-2 17a157 157 0 00-3 33v5l3 12s6 40-11 69c0 0-10 18-10 26l-7 2-13-3s7-24 4-40l2-53s-9-13-9-37l-6-66zM334 527s-1 26-14 44-15 25-15 25l-16 32a18 18 0 00-1 12l1 7s9 29 0 51l-4 43h-24l-3-39-6-62s-10-13 0-34c0 0 21-79 26-77s56-2 56-2z" />
  <path
    d="M287 647l-2-7a18 18 0 012-12l15-32s3-7 16-25c12-17 14-42 14-43l2-1s-1 26-14 44-15 25-15 25l-16 32a18 18 0 00-1 12l1 7s9 29 0 51l-4 43h-2l4-43c8-22 0-51 0-51zM361 736c0-8 10-26 10-26 17-29 10-69 10-69l-2-12v-5a157 157 0 012-33l3-17c2-18 9-36 9-37h3s-8 19-10 37l-2 17a157 157 0 00-3 33v5l3 12s6 40-11 69c0 0-10 18-10 26l-7 2h-1z"
    opacity=".1" />
  <path fill="#d39999"
    d="M353 736a12 12 0 0011-2 36 36 0 00-1 20c3 11-25-9-25-9l6-13s2 4 9 4z" />
  <path
    d="M355 736a11 11 0 009-2 36 36 0 00-1 20c3 11-25-9-25-9l6-13s2 3 7 4h4z"
    opacity=".1" />
  <path fill="#fdc2cc" d="M289 482h12v-67l-9-2-3 69z" />
  <path d="M289 482h12v-67l-9-2-3 69z" opacity=".1" />
  <path fill="#7e5659"
    d="M346 741s8-1 11 6l4 3 2-5a39 39 0 015 26s0 4-6 6c0 0-3 1-2 7s-11 14-27 11c0 0-14 0-15-3s1-12 1-12l8-12s7-13 7-20 8-11 12-7z" />
  <path fill="#d39999"
    d="M285 746v-9s-13 4-24-1c0 0 1 10-1 11s5 14 5 14l8 7 12-4 4-11-4-7z" />
  <path d="M285 746v-9s-13 4-24-1c0 0 1 10-1 11s5 14 5 14l8 7 12-4 4-11-4-7z"
    opacity=".1" />
  <path fill="#7e5659"
    d="M259 743s8 1 7 10 8 3 10 7 8-3 8-6 4-3 4-3 12 22 10 28-28 8-28 8-5-3-16 5-33 2-33 2-18-7-7-16 19-7 19-7l16-16s2-12 10-12z" />
  <path fill="#865a61"
    d="M345 217l12 10c6 5 15 6 19 12 4 5 5 13 4 19l-5 19c-1 7-1 13 3 18a4 4 0 002 2 6 6 0 003 0c6-1 12 4 15 10s3 12 3 19c0 5-1 11-3 15-4 9-12 14-21 17a159 159 0 01-16 7c-4 1-8 3-12 2-7-1-12-8-18-10-5-2-11-1-17-1-5 1-10 1-14-3s-2-12 0-18a13 13 0 01-9-20c2-3 6-5 4-8a5 5 0 00-2-2c-7-4-15-5-18-12-2-5 0-10 2-14s5-9 6-13c0-7-3-14-2-21a20 20 0 015-7 64 64 0 0121-16l24-6c5-1 9-2 14 1z" />
  <path fill="#fdc2cc" d="M301 318s-19-1-23 15 8 40 8 40z" />
  <path d="M301 318s-19-1-23 15 8 40 8 40z" opacity=".1" />
  <path fill="#fdc2cc"
    d="M289 366l7 6 34 1 21-14 22-37c-14-3-19-12-21-21a46 46 0 010-17s-35-18-31 10a38 38 0 011 10c-2 16-18 13-18 13l-6 10-7 23z" />
  <path d="M322 294a38 38 0 010 10 31 31 0 0030-3 46 46 0 010-17s-35-18-30 10z"
    opacity=".1" />
  <circle cx="334.5" cy="275" r="30.5" fill="#fdc2cc" />
  <path fill="#f8cf4d"
    d="M313 360l2 1c4 0 21 1 30-11l26-29 14 5s-11-4-19 17a22 22 0 008 25 23 23 0 009 4v10l-6 26a45 45 0 001 22l9 32c-2 1-57 39-95 12 0-1 5-38 2-56a126 126 0 01-2-15 16 16 0 00-5-11c-4-3-8-11-4-32a78 78 0 015-15l13-28h11c-1 1-14 18-16 29-1 10-3 13 17 14z" />
  <path fill="#fdc2cc"
    d="M395 331s11 9 16 31l14 59s4 16-10 31-23 28-23 28l-9 14a11 11 0 01-6 4c-4 1-10 2-16-1a9 9 0 01-4-12l2-4s-18 11-20 5 22-13 22-13 19-3 23-12c0 0 20-27 18-36l-19-53s-25-3-17-31 29-10 29-10z" />
  <path fill="#65617d"
    d="M276 531s46 9 56 8l1 4s18 4 57-2l7-2h1l1-8c1-11 2-32-6-54l-7-21s-40 25-67 22h-7c-6 0-14 0-20-5l-11 2v33a40 40 0 01-3 15l-1 2a11 11 0 00-1 6z" />
  <path
    d="M333 533v10s20 4 65-4l1-8c-14 3-52 8-66 2zM276 531s46 9 56 8l1 4v-10c-5 2-42-7-55-10l-1 2a11 11 0 00-1 6z"
    opacity=".1" />
  <path fill="#65617d" d="M386 520l4 21 7-2c-1-6-3-20-2-22l-5-4z" />
  <path d="M387 519l3 21 8-1-3-22-4-4z" opacity=".1" />
  <g opacity=".1">
    <path
      d="M317 478h-8c-5 0-13 0-19-4l2-1c6 5 14 5 20 5a143 143 0 019 1 45 45 0 01-4-1zM387 541l8-2h1l1-8c1-11 1-32-7-54l-6-19 2-2 7 20c8 23 7 44 6 55l-1 8h-1l-8 2c-18 3-31 3-40 3a257 257 0 0038-3zM330 539h-1 1z" />
  </g>
  <ellipse cx="391.8" cy="520.2" fill="#d39999" rx="1.7" ry="3.5" />
  <path fill="#fdc2cc"
    d="M283 449c2-21 7-33 10-38v4l1 11-3 46 3 14c4 12-8 3-8 3-3 5-7 5-7 5l-1-9a72 72 0 012-23 111 111 0 003-13z" />
  <path
    d="M283 449c2-21 7-33 10-38v4l1 11-3 46 3 14c4 12-8 3-8 3-3 5-7 5-7 5l-1-9a72 72 0 012-23 111 111 0 003-13z"
    opacity=".1" />
  <path fill="#fdc2cc"
    d="M397 474l-3 4-9 14a11 11 0 01-6 4c-5 1-11 2-16-1a9 9 0 01-4-12l2-4s-19 11-20 5 21-13 21-13 19-3 23-12l4-6" />
  <path fill="#65617d" d="M386 496s-22-2-29-14l-3 10s23 16 28 14z" />
  <path d="M385 496s-22-2-28-15l-4 11s23 16 29 14z" opacity=".1" />
  <path fill="#65617d" d="M286 490s-7 3-9 2l4 6 6-5z" />
  <path
    d="M286 490s-7 3-9 2l4 6 6-5zM333 533v-14l-3 14h3zM364 259c-1 3-5 4-8 4h-9c-5 0-11 1-15 4l-6 7c-6 7-15 14-25 14a6 6 0 01-4-2 7 7 0 01-2-4 95 95 0 011-19 39 39 0 013-11 38 38 0 017-10 41 41 0 0112-9 21 21 0 0114-2c6 1 11 6 16 8 7 3 23 10 16 20z"
    opacity=".1" />
  <path fill="#865a61"
    d="M364 258c-1 2-5 4-8 4h-9c-5 0-11 1-15 4l-6 7c-6 7-15 14-25 13a6 6 0 01-4-1 7 7 0 01-2-5 95 95 0 011-18 39 39 0 013-11 38 38 0 017-10 41 41 0 0112-10 21 21 0 0114-1c6 1 11 6 16 8 7 3 23 10 16 20z" />
  <path fill="#fdc2cc" d="M292 473v4l-1-3 1-1z" />
  <path
    d="M292 473v4l-1-3 1-1zM369 339c-8 28 17 31 17 31l19 53c2 10-18 36-18 36-2 3-5 6-9 8a14 14 0 005-6s20-26 19-35l-20-54s-25-3-16-31c3-9 7-13 11-15-3 2-6 7-8 13z"
    opacity=".1" />
  <g opacity=".1">
    <path
      d="M370 364a21 21 0 004 4 23 23 0 009 4v1a23 23 0 01-8-3 21 21 0 01-5-6zM293 404v1a129 129 0 002 14c3 17-1 51-2 56l-1-1c0-1 5-38 2-56a127 127 0 01-2-14v-1a15 15 0 00-2-7 16 16 0 013 8zM312 318h-10l-13 28a78 78 0 00-5 15c-3 17-1 26 2 30-4-4-7-12-3-31a77 77 0 015-15l13-28h11v1zM385 326z" />
    <path
      d="M382 326l-10-3-26 29c-9 11-26 10-30 10h-2c-11-1-15-2-17-5 2 2 7 3 16 3l2 1c4 0 21 1 30-11l26-29 14 5a9 9 0 00-3 0z" />
  </g>
  <path d="M266 757s-14 4-17-2M353 755s-16 4-19-3" opacity=".1" />
  <path fill="url(#e)"
    d="M615 766l1-6c2-9-1-17-2-20l-1-2c-6-2-31 18-40 25a157 157 0 00-16 1h-6c-8-7-34-28-41-26v2c-2 3-4 11-3 20l1 6c1 4 3 13 9 18 2 11 7 24 11 33a23 23 0 002 4c-2 7-4 15-3 18 0 0-9-2-10 9-3 2-7 5-3 12a5 5 0 002 2l2-1 5 6s11 2 11-4h4l1 3s-7-1-5 4l2 1s-1 3 3 3c0 0 4 2 6 1l5-5 1-6 26-1 1 7 5 5c2 2 6-1 6-1 4 0 3-3 3-3l2-1c2-5-5-4-5-4l1-3 4-1h1c-1 7 10 5 10 5l5-6 2 1a5 5 0 002-2c7-11-6-13-6-13a6 6 0 00-1 0v-1a22 22 0 000-4c0-2-3-5-7-5-3-1-3-12-3-21a23 23 0 001-4 24 24 0 00-1-8c5-8 9-17 9-20 7-5 9-14 9-18z"
    transform="translate(-31 -20)" />
  <path fill="#f8cf4d"
    d="M574 827l-1 14-12 1-4 1a491 491 0 01-53 0c-9-2-16-4-17-9a27 27 0 010-6c1-10 10-8 10-8-1-3 1-12 3-19l2-7 60-4a3 3 0 013 3c0 7-1 24 2 24 4 1 7 4 7 6a22 22 0 010 4zM523 748s-22 27-33 19h-1c-7-6-9-15-10-19l-1-6c-1-9 1-17 2-20l1-2c7-2 42 28 42 28z" />
  <path fill="#f8cf4d"
    d="M511 750l-17 13a36 36 0 01-5 4c-8-6-9-15-10-19l-1-6c-1-9 1-17 2-20 14 1 31 28 31 28z" />
  <path fill="#fff"
    d="M511 750l-17 13a36 36 0 01-5 4c-8-6-9-15-10-19l-1-6c-1-9 1-17 2-20 14 1 31 28 31 28z"
    opacity=".5" />
  <path
    d="M503 747l-9 8a19 19 0 01-3 1c-3-3-5-7-5-10v-3a22 22 0 011-11c7 1 16 15 16 15z"
    opacity=".1" />
  <path fill="#f8cf4d"
    d="M538 748s23 27 33 19h1c8-6 10-15 10-19l1-6c1-9-1-17-2-20l-1-2c-7-2-42 28-42 28z" />
  <path fill="#f8cf4d"
    d="M550 750l17 13a36 36 0 005 4c8-6 10-15 10-19l1-6c1-9-1-17-2-20-14 1-31 28-31 28z" />
  <path fill="#fff"
    d="M550 750l17 13a36 36 0 005 4c8-6 10-15 10-19l1-6c1-9-1-17-2-20-14 1-31 28-31 28z"
    opacity=".5" />
  <path
    d="M558 747l9 7a18 18 0 003 2c4-3 5-7 5-10v-3a22 22 0 00-1-11c-7 1-16 15-16 15zM562 790c-3 5-6 9-9 11-9 8-48 5-50 5l-3-5 2-7z"
    opacity=".1" />
  <path fill="#f8cf4d"
    d="M531 745h-5c-8 0-35 1-38 12-4 13 12 48 15 48s41 4 50-4 21-33 20-36c0 0 12-23-42-20z" />
  <path d="M530 766s-20-3-29 17a24 24 0 002 24c3 5 7 8 14 5 14-6 13-46 13-46z"
    opacity=".1" />
  <path d="M530 765s-20-3-30 17a24 24 0 002 24c3 4 8 8 14 5 14-6 14-46 14-46z"
    opacity=".1" />
  <path fill="#f8cf4d"
    d="M530 766s-20-3-30 16a24 24 0 002 25c3 4 8 7 14 5 14-6 14-46 14-46z" />
  <path fill="#fff"
    d="M530 766s-20-3-30 16a24 24 0 002 25c3 4 8 7 14 5 14-6 14-46 14-46z"
    opacity=".5" />
  <path fill="#3f2b3b"
    d="M508 783s-3 3-2 3l2-3zM511 786s-1 4 0 4l1-2zM504 791s-1 4 0 4v-4z" />
  <path fill="none" stroke="#3f2b3b" stroke-miterlimit="10"
    d="M503 802s3 7 10 7M509 804s3 3 7 1" />
  <path d="M533 766s20-3 29 17a24 24 0 01-2 24c-3 5-7 8-14 5-14-6-13-46-13-46z"
    opacity=".1" />
  <path d="M533 765s20-3 30 17a24 24 0 01-2 24c-3 4-8 8-14 5-14-6-14-46-14-46z"
    opacity=".1" />
  <path fill="#f8cf4d"
    d="M533 766s20-3 30 16a24 24 0 01-2 25c-3 4-8 7-14 5-14-6-14-46-14-46z" />
  <path fill="#fff"
    d="M533 766s20-3 30 16a24 24 0 01-2 25c-3 4-8 7-14 5-14-6-14-46-14-46z"
    opacity=".5" />
  <path fill="#3f2b3b"
    d="M555 783s3 3 2 3l-2-3zM552 786s2 4 0 4-1-2-1-2zM559 791s1 4 0 4v-4z" />
  <path fill="none" stroke="#3f2b3b" stroke-miterlimit="10"
    d="M560 802s-2 7-10 7M554 804s-3 3-7 1" />
  <path fill="#3f2b3b" d="M522 823c1 0 11-5 21 0z" />
  <path
    d="M504 843c-9-2-16-4-17-9a27 27 0 010-6 13 13 0 014-1c1-1 4 0 8 1s4 6 5 13a6 6 0 010 2z"
    opacity=".1" />
  <path fill="#f8cf4d"
    d="M490 827s-12 3-5 13a4 4 0 002 2l1-1 6 6s10 2 9-5 0-12-5-13l-8-2z" />
  <path fill="none" stroke="#3f2b3b" stroke-miterlimit="10"
    d="M493 835s3 5 6 0M487 837s1 5 6 1" />
  <path d="M574 827l-1 14-12 1a6 6 0 010-1c1-7 1-12 5-13 5-1 7-2 8-1z"
    opacity=".1" />
  <path fill="#f8cf4d"
    d="M575 827s12 3 6 13a5 5 0 01-2 2l-2-1-5 6s-11 2-10-5 1-12 5-13l8-2z" />
  <path fill="none" stroke="#3f2b3b" stroke-miterlimit="10"
    d="M572 835s-2 5-6 0M578 837s-1 5-6 1" />
  <path d="M520 844l-11-1-4-12a8 8 0 010-2 8 8 0 0115 0v15z" opacity=".1" />
  <path fill="#f8cf4d"
    d="M504 831l5 15s-8-1-6 4c0 0 2 2 3 1 0 0-1 3 3 3 0 0 4 2 5 1l6-5v-21a8 8 0 00-8-8 8 8 0 00-8 10z" />
  <path fill="none" stroke="#3f2b3b" stroke-miterlimit="10"
    d="M510 849s-3 3-1 5M509 847s-3 1-3 4" />
  <path d="M561 829a8 8 0 01-1 2l-3 12-12 1v-15a8 8 0 0116 0z" opacity=".1" />
  <path fill="#f8cf4d"
    d="M561 831l-4 15s7-1 5 4c0 0-2 2-3 1 0 0 1 3-2 3 0 0-5 2-6 1l-5-5v-21a8 8 0 017-8 8 8 0 018 10z" />
  <path fill="none" stroke="#3f2b3b" stroke-miterlimit="10"
    d="M555 849s3 3 2 5M556 847s3 1 3 4" />
  <path d="M530 763s-15-1-16 11 24 6 24 6 9-1 8-8-6-9-16-9z" opacity=".1" />
  <path d="M530 761s-15 0-16 11 24 7 24 7 9-1 8-8-6-9-16-10z" opacity=".1" />
  <path fill="#3f2b3b" d="M530 762s-15 0-16 11 24 7 24 7 9-2 8-9-6-8-16-9z" />
  <path d="M497 820s5 2 6 5M567 817s-3 2-3 8" opacity=".1" />
  <ellipse cx="527.8" cy="862.5" fill="#f8cf4d" rx="2.3" ry="3.8"
    transform="rotate(-30 476 910)" />
  <ellipse cx="600.3" cy="862.5" fill="#f8cf4d" rx="3.8" ry="2.3"
    transform="rotate(-60 567 879)" />
  <ellipse cx="527.8" cy="862.5" fill="#fff" opacity=".5" rx="2.3" ry="3.8"
    transform="rotate(-30 476 910)" />
  <ellipse cx="600.3" cy="862.5" fill="#fff" opacity=".5" rx="3.8" ry="2.3"
    transform="rotate(-60 567 879)" />
  <ellipse cx="192.6" cy="716.1" fill="#f8cf4d" opacity=".1" rx="26.9"
    ry="4.5" />
  <ellipse cx="86.5" cy="780.6" fill="#f8cf4d" opacity=".1" rx="26.9"
    ry="4.5" />
  <ellipse cx="58.5" cy="722.9" fill="#f8cf4d" rx="40.2" ry="6.8" />
  <path fill="#f8cf4d"
    d="M42 712a12 12 0 01-4-6c0-2 0-5 3-6 2-1 5 1 7 3s4 3 7 3a10 10 0 01-4-10 4 4 0 011-2h6c5 4 6 11 6 17l1-7c0-3 0-5 2-6a8 8 0 014-1c3 0 5 0 7 2s1 6-1 8l-6 6a15 15 0 00-5 4 5 5 0 000 1H51a40 40 0 01-9-6z" />
  <ellipse cx="1029.8" cy="754.1" fill="#f8cf4d" opacity=".1" rx="26.9"
    ry="4.5" />
  <path fill="#a8a8a8"
    d="M1012 733s15 0 20-4 23-7 25-2 23 27 5 27-40-3-45-6-5-15-5-15z" />
  <path
    d="M1063 752c-18 0-41-3-45-6-4-2-5-9-6-13s1 12 5 15 28 6 45 6c5 0 7-2 7-5-1 2-3 3-6 3z"
    opacity=".2" />
</svg>
