<svg xmlns="http://www.w3.org/2000/svg" viewBox="0 0 847 535.6">
  <path fill="#3f3d56" d="M641 515.8h206v2H641z"/>
  <path fill="#a0616a" d="M766 223.6v13.8l9.6 15.1 7-27.6-16.6-1.3z"/>
  <path fill="#e6e6e6" d="M764.6 100.8l7.5-2.1s11.8 2.1 11.8 16 2.8 68.9 2.8 68.9l-2.8 31.7s4.1 1.4 2.8 5.5-4.2 13.8-5.6 12.4-1.3-4.1-1.3-4.1-22.1 4.1-20.7 0 1.4-13.8 2.7-13.8-1.3-41.4-1.3-41.4z"/>
  <path fill="#a0616a" d="M639.8 218.7l18 22.1 22 26.2 6.9-31.7-12.3-2-12.5-18.7-22.1 4.1z"/>
  <path fill="#2f2e41" d="M684.6 211.2s-20.7 11-6.9 85.5L682 371l2.7 122.7h27.6l5.5-121.3 16.6-77.2 26.2 69-9.7 122.6 37.2 5.6 12.4-138-22-102-16.6-29-3.4-7.5z"/>
  <path fill="#2f2e41" d="M688.8 489.7l-4.2 12.4s-5.5 22 13.8 19.3 12.4-15.2 12.4-15.2l-1.4-16.5zM752.2 485.6s-4.2 13.8-4.2 20.6 2.8 10 2.8 10 78.6 5.2 77.2-1.7-9.6-9.6-9.6-9.6l-19.3-4.2-13.8-11-27.6-6.9z"/>
  <circle cx="720.5" cy="40.2" r="26.2" fill="#a0616a"/>
  <path fill="#a0616a" d="M739.8 51.2l4.1 38.6-9.6 18-23.5-26.3-2.7-22 31.7-8.3z"/>
  <path fill="#e6e6e6" d="M731.5 91.2L709.9 74l-4.6 6.2L670.8 94l1.4 60.6s1.4 51 9.7 56.6l-3.5 4.8 82 3.4v-37.2l18-80-31.7-17.9-4-5.6z"/>
  <path fill="#e6e6e6" d="M676.3 96.7l-2-4.2-4.9 1.5s-9.6 4-16.5 22-26.2 58-26.2 58-5.5 6.8-1.4 13.7 8.3 22 8.3 22-4.1-1.3-1.4 4.2 2.8 11 11 9.7 24.9-5.5 23.5-9.7-2.8-11-5.5-11-7-20.7-7-20.7l2.8-11 20.7-24.9z"/>
  <path fill="#2f2e41" d="M723.2 20.9s-4.1 0-4.1-1.4c0 0-14.4-.5-20.3 6s-4.5-3.3-4.5-3.3-15.2-6.8-2.8-13.7l1.4 1.3s2.7-4.1 12.4-5.5L703.9 3s0-1.3 7-1.3 24.7-7 26.1 8.2c0 0 11-4.1 11 9.7s-1.3 20.7-1.3 20.7-2.8-7-8.3-2.8S723.2 21 723.2 21z"/>
  <ellipse cx="106.5" cy="462.5" fill="#e6e6e6" rx="106.5" ry="11"/>
  <path fill="#e6e6e6" d="M41.9 302.1h129.2v160.5H41.9z"/>
  <path fill="#fff" d="M60.6 358.2h92.3v4.3H60.6zM60.6 373.1h92.3v4.3H60.6zM60.6 388h92.3v4.3H60.6zM60.6 402.9h92.3v4.3H60.6z"/>
  <path fill="#e6e6e6" d="M131.9 235.5a25.3 25.3 0 11-4-13.6 25.4 25.4 0 014 13.6z"/>
  <path fill="#fff" d="M128 222l-25 24.9a470.7 470.7 0 00-10.3-13.7 35.4 35.4 0 013.5-3.2l7.3 9.7 21.5-21.5a25.2 25.2 0 013 3.7z"/>
  <ellipse cx="451.1" cy="456.1" fill="#e6e6e6" rx="106.5" ry="11"/>
  <path fill="#e6e6e6" d="M386.5 295.7h129.2v160.5H386.5z"/>
  <path fill="#fff" d="M405.2 385h92.3v4.3h-92.3zM405.2 399.9h92.3v4.3h-92.3zM405.2 414.8h92.3v4.3h-92.3zM405.2 429.7h92.3v4.3h-92.3zM433.5 352.8H404a102.6 102.6 0 010-35h29.4a63 63 0 000 35zM445.6 321.1h54v3.6h-54zM445.6 333.9h54v3.6h-54zM445.6 346.7h54v3.6h-54zM445.6 359.4h54v3.6h-54z"/>
  <path fill="#e6e6e6" d="M476.5 229.8a25.3 25.3 0 11-4-13.5 25.4 25.4 0 014 13.5z"/>
  <path fill="#fff" d="M472.6 216.3l-25 25a470.7 470.7 0 00-10.3-13.8 35.4 35.4 0 013.6-3.1l7.2 9.6 21.5-21.5a25.2 25.2 0 013 3.8z"/>
  <ellipse cx="280.8" cy="522.7" fill="#3f3d56" rx="124.8" ry="12.9"/>
  <path fill="#ffc44c" d="M204.2 337.5h151.4v188.1H204.2z"/>
  <path fill="#fff" d="M225.9 377.5h108.2v5H225.9zM225.9 394.9h108.2v5H225.9zM225.9 412.4h108.2v5H225.9zM225.9 429.9h108.2v5H225.9zM225.9 447.4h108.2v5H225.9zM251.7 465.7h56.6v20h-56.6z"/>
  <path fill="#ffc44c" d="M318.5 256.7a38 38 0 11-5.9-20.3 38.1 38.1 0 015.9 20.3z"/>
  <path fill="#fff" d="M312.6 236.4l-37.5 37.5c-2.4-3.7-15.5-20.6-15.5-20.6a53.1 53.1 0 015.4-4.8l10.9 14.5 32.3-32.3a38 38 0 014.4 5.7z"/>
</svg>
